<svg id="Layer_1" data-name="Layer 1" xmlns="http://www.w3.org/2000/svg" viewBox="0 0 1366 226.25"><defs><style>.cls-1{fill:#f5f5f5;}</style></defs><path id="Path_1229" data-name="Path 1229" class="cls-1" d="M87.68,68.52,133,76.12l28.58,25.27h26.64l1.73-15.65h17.94L226.4,67.18l53-3.58,16.32,21.69,2.23-2.91h8.72l7.6-3.35,1.79-10.51-3.35-2.9v-4L316.27,58l7.6-7.6,7.27,7.27,3.58,3.58v4.8l-3,2.69L336,73.89h13L361.1,61.7,398,61.37l2.79-5.59h7.15l2.8,5.81h10.06l9.5-11.17H461l8.83,8.83h24.87V53.43l7.94-7.93,8.19,8.18v8h10.77l6.84,6.85L538,59V44.38h16.88V54.1h11.84l4.14-13L575.28,54l36.55-2.9.9-10h7.82v4.58h6.71V56.9h15.2V44.15H655V55.33h8.5V41.13h13.08v14h29.62V43.71h10.73V60H752l32-32L812,31h15.09V19.28h20.45V29.34l25.49-2.85V15.26h6.54V11.07h8v4.86h6.2V24h4.69V13.75h23.81v8.38l50.82-5.36V3.86H988.6V0h19.62V18.78L1067,57l311.63,8.55V226.25L1076,184.11-12.65,224.62l4.79-148.5L29.7,73.88l18.4-6.7Z"/></svg>