<svg id="Layer_1" data-name="Layer 1" xmlns="http://www.w3.org/2000/svg" viewBox="0 0 1404.45 306.49"><defs><style>.cls-1{fill:#f5f5f5;}</style></defs><path id="Path_1229" data-name="Path 1229" class="cls-1" d="M97.69,68.52,143,76.12l28.58,25.27h26.64l1.73-15.65h17.95L236.4,67.18l53-3.58,16.32,21.69,2.23-2.91h8.72l7.6-3.35,1.79-10.51-3.35-2.9v-4L326.27,58l7.6-7.6,7.27,7.27,3.58,3.58v4.8l-3,2.69L346,73.89h13L371.1,61.7,408,61.37l2.79-5.59h7.16l2.79,5.81h10.06l9.5-11.17H471l8.84,8.83h24.87V53.43l7.93-7.93,8.19,8.18v8h10.77l6.85,6.85L548,59V44.38h16.88V54.1h11.85l4.13-13L585.28,54l36.56-2.9.89-10h7.83v4.58h6.7V56.9h15.2V44.15H665V55.33h8.5V41.13h13.08v14h29.63V43.71h10.73V60H762l32-32,28,3h15.09V19.28h20.46V29.34l25.48-2.85V15.26h6.54V11.07h8v4.86h6.2V24h4.69V13.75h23.81v8.38l50.82-5.36V3.86H998.6V0h19.62V18.78L1077,57l327.43,8.55L1400.16,305H1058.62L0,306.49.72,76.12l39-2.24,18.4-6.7Z"/></svg>