<svg id="Layer_1" data-name="Layer 1" xmlns="http://www.w3.org/2000/svg" viewBox="0 0 1405.34 491.94"><defs><style>.cls-1{fill:#fafafa;}</style></defs><path id="Path_1228" data-name="Path 1228" class="cls-1" d="M989.13,170.86V151.75l-9.9-29.51v-8.89h-3v8.89l-8.38,28.33v21.8h-6V148.73L950.23,117.2V108h-3.69v9.72l-10.06,31.2v25.65l-63.2,3.08-15.44-22-40.05,3.48-4-6.47L799.16,154l-7.44-9.3-7,9.34-17.89-1.56-19.44-56-3.89,13.23-80.12,7.78-5.45-27.23V37.34H647V90.23l-3.11,20.23H619.82l-7-42-7,31.11L599.59,70,587.92,0l-7,69.23-5,12.45V94.51l-9-9V56h-8.56V95.67l-6.22,14.78v18.67l-10.89.78v-28l-9.33-11.67V50.56h-7V87.9l-8.56,3.89v28l-5.45,7v50.27h-8L489.79,167l-144.54,5-45.61,13.08-22.13,3-70.76,4.7-8.05,8H152.76l-34.57,19.36H78.62l-25.06-4.86H33.79l-33.25,10L0,491.94l1399.91-1.54,5.43-303-44.55.86-33.2-10.6h-23.22L1280,189.88h-218.6Z"/></svg>