<svg id="Layer_1" data-name="Layer 1" xmlns="http://www.w3.org/2000/svg" viewBox="0 0 1366 318.07"><defs><style>.cls-1{fill:#fafafa;}</style></defs><path id="Path_1228" data-name="Path 1228" class="cls-1" d="M976.37,170.86V151.75l-9.89-29.51v-8.89h-3v8.89l-8.38,28.33v21.8h-6V148.73L937.47,117.2V108h-3.69v9.72l-10.06,31.2v25.65l-63.2,3.08-15.44-22L805,159.06l-4-6.47L786.4,154l-7.43-9.3L772,154l-17.9-1.56-19.44-56-3.89,13.23-80.12,7.78-5.45-27.23V37.34H634.28V90.23l-3.11,20.23H607.06l-7-42-7,31.11L586.83,70,575.16,0l-7,69.23-5,12.45V94.51l-9-9V56H545.6V95.67l-6.22,14.78v18.67l-10.89.78v-28l-9.33-11.67V50.56h-7V87.9l-8.56,3.89v28l-5.44,7v50.27h-8.05L477,167l-144.54,5-45.61,13.08-22.13,3L194,192.83l-8.05,8H140l-34.57,19.36H65.86L40.8,215.38H21l-33.79,10-8.39,92.72,1408.3-16.58-8.5-124L1348,188.22l-33.2-10.6h-23.22l-24.36,12.26h-218.6Z"/></svg>