<svg id="Layer_1" data-name="Layer 1" xmlns="http://www.w3.org/2000/svg" viewBox="0 0 880 701.29"><defs><style>.cls-1{opacity:0.07;}.cls-2{fill:#e6e6e6;}.cls-3{fill:#3f3d56;}.cls-4{fill:#e4e4e4;}.cls-5{fill:#f1cdcd;}.cls-6{fill:#8a8a93;}.cls-7{fill:#b3b3b3;}.cls-8{fill:#f0f0f0;}.cls-9{fill:#f2f2f2;}.cls-10{fill:#27272a;}.cls-11{fill:#bdaee1;}.cls-12{isolation:isolate;}.cls-13{fill:#fff;}</style></defs><g id="Group_91" data-name="Group 91" class="cls-1"><path id="Path_243" data-name="Path 243" class="cls-2" d="M482.52,44.71a.79.79,0,1,1,0-1.57h51.75a24.75,24.75,0,0,1,23.93-18.9,34.4,34.4,0,0,1,62.48-7.33q1.16-.09,2.25-.09a29.19,29.19,0,0,1,29,27.06.77.77,0,0,1-.72.83h-.06a.79.79,0,0,1-.78-.73Z"/><path id="Path_244" data-name="Path 244" class="cls-2" d="M641.89,54.73H513.66a.78.78,0,1,1,0-1.56H641.89a.78.78,0,0,1,0,1.56Z"/><rect id="Rectangle_59" data-name="Rectangle 59" class="cls-3" x="169.29" y="310.35" width="35.59" height="82.51"/><rect id="Rectangle_60" data-name="Rectangle 60" class="cls-3" x="620.65" y="310.35" width="35.59" height="82.51"/><circle id="Ellipse_23" data-name="Ellipse 23" class="cls-4" cx="204.54" cy="138.14" r="102.33"/><rect id="Rectangle_61" data-name="Rectangle 61" class="cls-3" x="173.33" y="262.62" width="27.5" height="51.77"/><rect id="Rectangle_62" data-name="Rectangle 62" class="cls-3" x="177.38" y="151" width="6.47" height="116.48"/><rect id="Rectangle_63" data-name="Rectangle 63" class="cls-3" x="190.32" y="151" width="6.47" height="116.48"/><rect id="Rectangle_64" data-name="Rectangle 64" class="cls-3" x="180.61" y="155.85" width="14.56" height="8.09"/><rect id="Rectangle_65" data-name="Rectangle 65" class="cls-3" x="180.61" y="188.21" width="14.56" height="8.09"/><rect id="Rectangle_66" data-name="Rectangle 66" class="cls-3" x="180.61" y="223.8" width="14.56" height="8.09"/><rect id="Rectangle_67" data-name="Rectangle 67" class="cls-3" x="179" y="146.15" width="3.24" height="8.09"/><rect id="Rectangle_68" data-name="Rectangle 68" class="cls-3" x="191.94" y="146.15" width="3.24" height="8.09"/><rect id="Rectangle_69" data-name="Rectangle 69" class="cls-3" x="624.69" y="262.62" width="27.5" height="51.77"/><rect id="Rectangle_70" data-name="Rectangle 70" class="cls-3" x="628.74" y="151" width="6.47" height="116.48"/><rect id="Rectangle_71" data-name="Rectangle 71" class="cls-3" x="641.68" y="151" width="6.47" height="116.48"/><rect id="Rectangle_72" data-name="Rectangle 72" class="cls-3" x="631.97" y="155.85" width="14.56" height="8.09"/><rect id="Rectangle_73" data-name="Rectangle 73" class="cls-3" x="631.97" y="188.21" width="14.56" height="8.09"/><rect id="Rectangle_74" data-name="Rectangle 74" class="cls-3" x="631.97" y="223.8" width="14.56" height="8.09"/><rect id="Rectangle_75" data-name="Rectangle 75" class="cls-3" x="630.35" y="146.15" width="3.24" height="8.09"/><rect id="Rectangle_76" data-name="Rectangle 76" class="cls-3" x="643.29" y="146.15" width="3.24" height="8.09"/><path id="Path_247" data-name="Path 247" class="cls-3" d="M708,311.16c-.23,2.71-.49,5.41-.8,8.09H118.31c-.31-2.68-.57-5.38-.8-8.09Z"/><path id="Path_248" data-name="Path 248" class="cls-3" d="M417.2,298.57c-77.57,0-157.57-50.38-237.84-149.79l2.51-2c80.75,100,161,150,238.54,148.56,75.35-1.38,150.45-51.35,223.21-148.52l2.59,1.94c-73.39,98-149.34,148.42-225.74,149.81Z"/><path id="Path_249" data-name="Path 249" class="cls-3" d="M417,287.7c-73.27,0-148.83-46.72-224.64-138.91l2.5-2c76.24,92.71,152,139,225.24,137.7,71.1-1.3,142-47.62,210.64-137.66l2.57,2c-69.3,90.86-141,137.6-213.15,138.92C419.06,287.69,418,287.7,417,287.7Z"/><path id="Path_250" data-name="Path 250" class="cls-3" d="M704.92,228.51c-1.12-1-2.25-1.93-3.37-2.91Q665.24,194,628.73,148.78l2.51-2q34.66,42.94,69.16,73.54,1.74,1.54,3.48,3.06Q704.44,225.93,704.92,228.51Z"/><path id="Path_251" data-name="Path 251" class="cls-3" d="M701.2,211.87q-1.89-1.68-3.76-3.44a595.51,595.51,0,0,1-55.76-59.64l2.5-2.06a603.49,603.49,0,0,0,51.55,55.69q2,1.88,3.94,3.68h0C700.2,208,700.72,210,701.2,211.87Z"/><rect id="Rectangle_77" data-name="Rectangle 77" class="cls-3" x="213.96" y="173.29" width="3.24" height="140.3"/><rect id="Rectangle_78" data-name="Rectangle 78" class="cls-3" x="244.06" y="204.09" width="3.24" height="109.5"/><rect id="Rectangle_79" data-name="Rectangle 79" class="cls-3" x="285.06" y="238.33" width="3.24" height="76.06"/><rect id="Rectangle_80" data-name="Rectangle 80" class="cls-3" x="324.31" y="262.62" width="3.24" height="50.96"/><rect id="Rectangle_81" data-name="Rectangle 81" class="cls-3" x="356.88" y="276.36" width="3.24" height="38.84"/><rect id="Rectangle_82" data-name="Rectangle 82" class="cls-3" x="662.44" y="173.29" width="3.24" height="140.3"/><rect id="Rectangle_83" data-name="Rectangle 83" class="cls-3" x="692.54" y="204.09" width="3.24" height="109.5"/><path id="Path_252" data-name="Path 252" class="cls-3" d="M195.91,148.78q-16.87,20.9-33.72,38.9L159,191.11q-13.46,14.13-26.86,26.42l-3.24,2.95q-2.36,2.1-4.69,4.16c-.37.32-.72.64-1.09,1-.76.67-1.54,1.34-2.31,2,.35-1.74.7-3.46,1.08-5.2h0c.8-.69,1.59-1.39,2.38-2.1l1.11-1h0q1.77-1.56,3.52-3.17t3.24-3q13.41-12.42,26.86-26.76c1.08-1.14,2.16-2.3,3.23-3.46q15.6-16.83,31.2-36.17Z"/><path id="Path_253" data-name="Path 253" class="cls-3" d="M183,148.79q-10.56,12.84-21.1,24.5c-1,1.07-1.93,2.13-2.9,3.18q-13.58,14.79-27.13,27.63l-3,2.79-.46.43-1.2,1.12c-.87.81-1.73,1.6-2.6,2.38.49-1.95,1-3.89,1.57-5.83.92-.84,1.83-1.7,2.73-2.57l1.25-1.18q14-13.29,28-28.69,11.15-12.26,22.31-25.81Z"/><rect id="Rectangle_84" data-name="Rectangle 84" class="cls-3" x="158.96" y="173.29" width="3.24" height="140.3"/><rect id="Rectangle_85" data-name="Rectangle 85" class="cls-3" x="128.86" y="204.09" width="3.24" height="109.5"/><rect id="Rectangle_86" data-name="Rectangle 86" class="cls-3" x="613.18" y="170.05" width="3.24" height="143.53"/><rect id="Rectangle_87" data-name="Rectangle 87" class="cls-3" x="583.08" y="204.09" width="3.24" height="109.5"/><rect id="Rectangle_88" data-name="Rectangle 88" class="cls-3" x="542.08" y="238.33" width="3.24" height="76.06"/><rect id="Rectangle_89" data-name="Rectangle 89" class="cls-3" x="502.83" y="262.62" width="3.24" height="50.96"/><rect id="Rectangle_90" data-name="Rectangle 90" class="cls-3" x="470.26" y="276.36" width="3.24" height="38.84"/><rect id="Rectangle_91" data-name="Rectangle 91" class="cls-3" x="407.54" y="285.91" width="3.24" height="29.29"/><path id="Path_257" data-name="Path 257" class="cls-2" d="M338.52,119.71a.78.78,0,0,1-.79-.78.8.8,0,0,1,.78-.79h51.76a24.75,24.75,0,0,1,23.93-18.9,34.4,34.4,0,0,1,62.48-7.33q1.15-.09,2.25-.09a29.19,29.19,0,0,1,29,27.06.77.77,0,0,1-.72.83h-.06a.79.79,0,0,1-.78-.73Z"/><path id="Path_258" data-name="Path 258" class="cls-2" d="M400.94,141.07h-43a.8.8,0,0,1-.79-.78.78.78,0,0,1,.78-.78h43a.77.77,0,0,1,.78.78.78.78,0,0,1-.78.78Z"/><path id="Path_259" data-name="Path 259" class="cls-3" d="M425.32,33.79l6.5-5.2c-5.05-.55-7.13,2.2-8,4.38-3.95-1.64-8.24.51-8.24.51l13,4.72a9.88,9.88,0,0,0-3.3-4.41Z"/><path id="Path_260" data-name="Path 260" class="cls-3" d="M448.45,169.05l6.5-5.2c-5.05-.56-7.12,2.2-8,4.38-4-1.64-8.24.51-8.24.51l13,4.72a9.88,9.88,0,0,0-3.3-4.41Z"/><path id="Path_261" data-name="Path 261" class="cls-3" d="M600.62,118.33l6.5-5.2c-5-.56-7.13,2.2-8,4.38-3.95-1.64-8.24.51-8.24.51l13,4.72A9.93,9.93,0,0,0,600.62,118.33Z"/><rect id="Rectangle_92" data-name="Rectangle 92" class="cls-3" x="153.82" y="377.5" width="63.18" height="10.68"/><rect id="Rectangle_93" data-name="Rectangle 93" class="cls-3" x="606.75" y="377.5" width="63.18" height="10.68"/><rect id="Rectangle_94" data-name="Rectangle 94" class="cls-3" x="116.94" y="303.34" width="591.55" height="2.67"/></g><g id="Group_84" data-name="Group 84"><path id="Path_61" data-name="Path 61" class="cls-5" d="M192.79,349.79a10.53,10.53,0,0,0-13.6,6,10.29,10.29,0,0,0-.51,1.78l-86.39,47,15.19,17.1,80.22-51.49a10.57,10.57,0,0,0,5.09-20.37Z"/><path id="Path_62" data-name="Path 62" class="cls-5" d="M170.76,687.76l10.77-7L159.79,636l-15.88,10.28Z"/><path id="Path_63" data-name="Path 63" class="cls-6" d="M208.75,677.36l-33.83,21.89-8.45-13.07,21.25-13.75a15,15,0,0,1,20.72,4.44h0Z"/><path id="Path_64" data-name="Path 64" class="cls-5" d="M50,689.38H62.8l6.1-49.45H50Z"/><path id="Path_65" data-name="Path 65" class="cls-6" d="M87.53,701.29H47.23V685.72H72.54a15,15,0,0,1,15,15h0Z"/><path id="Path_80" data-name="Path 80" class="cls-6" d="M57.54,523.18C61.15,548.52,42,660.8,44.15,660.79l27.46-.15c1-1.88,13.59-62.46,17.54-72.18,5.52-13.49,11.09-27.15,13.27-41.55,2-13.53,1-27.31-.3-40.93a2.59,2.59,0,0,0-2.16-3,2.63,2.63,0,0,0-.84,0l-36.85-1.9c-7.6-.39-9.4-2.05-8.24,5.4C54.83,512.12,56.73,517.54,57.54,523.18Z"/><path id="Path_81" data-name="Path 81" class="cls-6" d="M64.78,461.56c-7.49,10.77-15.34,23.16-12.85,36.05,1.89,9.79,9.35,17.38,16.38,24.47,28.14,28.25,83.6,152.9,83.6,152.9,26.77-17.13-.63.49,26.53-17.62-2.4-.19-57.11-196.85-61.64-197.11C98.46,459,82.64,457.24,64.78,461.56Z"/><path id="Path_82" data-name="Path 82" class="cls-7" d="M94.4,359.08c-3.8-3.4-30.53-13.86-30.53-13.86a4.59,4.59,0,0,0-1.48,0c-1.52.38-2.22,2.27-1.89,3.8s-2.34,26.65-3,38.07c-1.2,19.94,10.54,65.1,10.44,66.48a20.68,20.68,0,0,1-6.08,13c.91,1.13,59,3.41,62.94,4.75.8-1-4.5-72.64-4.74-76.69C119.62,388.55,99.42,363.73,94.4,359.08Z"/><path id="Path_83" data-name="Path 83" class="cls-5" d="M53,514.5a10.5,10.5,0,0,0,4.72-14.09,10.08,10.08,0,0,0-1-1.58l24.5-135.61-22.87-.3L41.35,497A10.57,10.57,0,0,0,53,514.51Z"/><path id="Path_84" data-name="Path 84" class="cls-7" d="M52.78,373.28a4.37,4.37,0,0,1-2.7-.7c-1.36-1.17,9.74-19,11.93-19.26,7.14-.82,14.48-1.1,21.4.84s13.43,6.31,16.52,12.8c1.3,2.7-8.07,16.3-12.33,14.3C82.5,378.87,59.49,373.45,52.78,373.28Z"/><circle id="Ellipse_15" data-name="Ellipse 15" class="cls-5" cx="77.97" cy="318.08" r="25.68"/><path id="Path_85" data-name="Path 85" class="cls-6" d="M52.74,360.54a21.45,21.45,0,0,0,22.6-28.11c-1-3.08-2.73-5.89-3.67-9s-1-6.77,1.12-9.25c4.06-4.87,11.89-1.8,18.15-2.78,6.67-1,11.79-7.43,12.33-14.16s-3-13.39-8.2-17.67-12-6.38-18.68-7a50.51,50.51,0,0,0-51.84,69c2.81,7,7.4,13.56,13.91,17.41s15.11,4.58,21.6.7"/></g><path id="Path_160" data-name="Path 160" class="cls-8" d="M812.58,686.66A50.79,50.79,0,0,1,799,699.29c-1.12.71-2.27,1.38-3.44,2H768c.33-.66.65-1.33,1-2A95.36,95.36,0,0,0,749.14,590c16.64,5.14,32,15.16,42.08,29.37a64.3,64.3,0,0,1,10.23,23,96.29,96.29,0,0,0-7.67-48.41c13.51,11,24,26,28,43S822.92,672.65,812.58,686.66Z"/><g id="Group_90" data-name="Group 90"><path id="Path_206" data-name="Path 206" class="cls-2" d="M379.44,577a35.37,35.37,0,0,0,34.13-6c11.95-10,15.7-26.56,18.75-41.87l9-45.26-18.88,13c-13.58,9.35-27.47,19-36.87,32.54s-13.51,32-5.95,46.68"/><path id="Path_207" data-name="Path 207" class="cls-9" d="M381.06,631.78c-1.91-13.92-3.88-28-2.54-42.09,1.19-12.5,5-24.7,12.77-34.7a57.81,57.81,0,0,1,14.81-13.43c1.48-.93,2.84,1.42,1.37,2.35a54.84,54.84,0,0,0-21.71,26.2c-4.73,12-5.49,25.12-4.67,37.9.49,7.72,1.53,15.4,2.59,23.06a1.42,1.42,0,0,1-.95,1.67,1.37,1.37,0,0,1-1.67-1Z"/><path id="Path_208" data-name="Path 208" class="cls-2" d="M399.46,607.15a26,26,0,0,0,22.67,11.7c11.47-.55,21-8.55,29.65-16.16l25.47-22.49-16.86-.8c-12.12-.58-24.55-1.12-36.1,2.61S402.1,594.75,400,606.7"/><path id="Path_209" data-name="Path 209" class="cls-9" d="M375.66,639.78c9.2-16.27,19.87-34.36,38.93-40.14A43.2,43.2,0,0,1,431,598c1.74.15,1.3,2.83-.43,2.68a40.36,40.36,0,0,0-26.14,6.91c-7.37,5-13.1,12-18,19.38-3,4.53-5.64,9.25-8.3,14-.85,1.51-3.34.42-2.48-1.11Z"/><path id="Path_210" data-name="Path 210" class="cls-9" d="M360.92,656.92A19.68,19.68,0,0,1,373,640.42V631h15.78v9.7a19.72,19.72,0,0,1,11.42,16.2l3.71,43.14H357.21Z"/></g><g id="Group_70" data-name="Group 70"><path id="Path_41" data-name="Path 41" class="cls-10" d="M877.7,701.29H2.3c-1.27,0-2.3-.42-2.3-.93s1-.93,2.3-.93H877.7c1.27,0,2.3.41,2.3.93S879,701.29,877.7,701.29Z"/></g><g id="undraw_Segmentation_re_gduq" data-name="undraw Segmentation re gduq"><path id="Path_275" data-name="Path 275" class="cls-5" d="M591.86,373.37a13.63,13.63,0,0,1,1.79,1l57-24.34,2-15,22.79-.14-1.35,34.46-75.26,19.9a14.23,14.23,0,0,1-.57,1.54,13,13,0,1,1-6.46-17.4Z"/><path id="Path_276" data-name="Path 276" class="cls-5" d="M683.78,685.58H668.2l-7.42-60.12h23Z"/><path id="Path_277" data-name="Path 277" class="cls-6" d="M657.06,681.13h30.07v18.93h-49a18.92,18.92,0,0,1,18.92-18.93Z"/><path id="Path_278" data-name="Path 278" class="cls-5" d="M744.41,681.18l-15.52,1.52-13.27-59.1,22.89-2.26Z"/><path id="Path_279" data-name="Path 279" class="cls-6" d="M717.37,679.36l29.92-2.94,1.85,18.83-48.75,4.8a18.94,18.94,0,0,1,17-20.69Z"/><circle id="Ellipse_28" data-name="Ellipse 28" class="cls-5" cx="688.12" cy="240.02" r="31.23"/><path id="Path_280" data-name="Path 280" class="cls-6" d="M664.71,673.42a5.68,5.68,0,0,1-5.61-4.7C651,623.94,624.66,477.49,624,473.44c0-.1,0-.19,0-.28V462.24a1.84,1.84,0,0,1,.36-1.11l3.48-4.88a1.89,1.89,0,0,1,1.45-.8c19.87-.93,84.91-3.66,88.06.27h0c3.15,3.95,2,15.9,1.78,18.26v.24l29.23,186.9a5.74,5.74,0,0,1-4.72,6.52l-18.26,3a5.75,5.75,0,0,1-6.39-3.93c-5.64-18-24.57-78.72-31.13-102.21a.64.64,0,0,0-1.25.18c.33,22.38,1.12,79.49,1.39,99.22l0,2.12a5.74,5.74,0,0,1-5.2,5.77l-17.6,1.6A4.87,4.87,0,0,1,664.71,673.42Z"/><path id="Path_99" data-name="Path 99" class="cls-7" d="M668.31,283.52c-5.45,3.24-8.72,9.2-10.59,15.25a144.79,144.79,0,0,0-6.21,34.53l-2,35.1-24.48,93c21.21,17.95,33.45,13.87,62-.82s31.82,4.9,31.82,4.9l5.71-79.15,8.16-86.5a38.24,38.24,0,0,0-6.18-5.95,63.11,63.11,0,0,0-54-11.43Z"/><path id="Path_281" data-name="Path 281" class="cls-5" d="M660.35,392.16a13.32,13.32,0,0,1,1.91.9l56.39-28.23.93-15.29,23.26-1.6,1.25,34.85-75.35,24.92a13.34,13.34,0,1,1-10-16,12.6,12.6,0,0,1,1.59.47Z"/><path id="Path_101" data-name="Path 101" class="cls-7" d="M732.36,300.25c13.88,4.9,16.32,57.94,16.32,57.94-16.32-9-35.9,5.72-35.9,5.72s-4.08-13.88-9-31.83a31.18,31.18,0,0,1,6.53-29.38S718.49,295.35,732.36,300.25Z"/><path id="Path_102" data-name="Path 102" class="cls-6" d="M716.13,248.28c-3.9-3.12-9.2,2.54-9.2,2.54l-3.12-28s-19.45,2.33-31.9-.78-14.4,11.28-14.4,11.28a100.4,100.4,0,0,1-.39-17.51c.78-7,10.9-14,28.79-18.67s27.24,15.56,27.24,15.56C725.6,218.92,720,251.39,716.13,248.28Z"/></g><g id="Group_88" data-name="Group 88"><g id="Group_87" data-name="Group 87"><g id="Group_105" data-name="Group 105"><path id="Rectangle_5" data-name="Rectangle 5" class="cls-11" d="M149,254.29H401a28,28,0,0,1,28,28h0a28,28,0,0,1-28,28H149a28,28,0,0,1-28-28h0A28,28,0,0,1,149,254.29Z"/><g id="Jasně_mrkni_na_dlužníček_" data-name="Jasně mrkni na dlužníček " class="cls-12"><g class="cls-12"><path class="cls-13" d="M148.54,289a3.65,3.65,0,0,1-1.47-1.39,4.55,4.55,0,0,1-.61-2v-.15h1.94v.11a2.64,2.64,0,0,0,.34,1.07,2.19,2.19,0,0,0,.79.78,2.93,2.93,0,0,0,3.25-.45,3.13,3.13,0,0,0,.68-2.16V273.79h1.93v11.09a4.68,4.68,0,0,1-1.21,3.43,4.46,4.46,0,0,1-3.36,1.24A4.71,4.71,0,0,1,148.54,289Z"/><path class="cls-13" d="M159.21,289.09a3.1,3.1,0,0,1-1.3-1.18,3.35,3.35,0,0,1-.47-1.78v0a2.8,2.8,0,0,1,1.06-2.28,5.14,5.14,0,0,1,3-1l4.14-.24v1.45l-3.92.24a3,3,0,0,0-1.74.54,1.5,1.5,0,0,0-.62,1.25v0a1.54,1.54,0,0,0,.61,1.28,2.52,2.52,0,0,0,1.62.47,3.32,3.32,0,0,0,1.58-.37,2.88,2.88,0,0,0,1.12-1,2.67,2.67,0,0,0,.41-1.45v-3.3a2,2,0,0,0-.64-1.6,2.58,2.58,0,0,0-1.81-.59,3,3,0,0,0-1.73.47,1.93,1.93,0,0,0-.82,1.22l0,.09h-1.8v-.12a3.38,3.38,0,0,1,.63-1.67,3.77,3.77,0,0,1,1.5-1.2,5.24,5.24,0,0,1,2.26-.44,5.38,5.38,0,0,1,2.29.45,3.38,3.38,0,0,1,2,3.21v7.72h-1.87v-1.81h0a3.83,3.83,0,0,1-.86,1.07,4,4,0,0,1-2.63,1A4.31,4.31,0,0,1,159.21,289.09Z"/><path class="cls-13" d="M170.63,289.09a3.51,3.51,0,0,1-2.18-2.92v-.1h1.87l0,.11a2.05,2.05,0,0,0,.81,1.3,2.93,2.93,0,0,0,1.77.47,3.82,3.82,0,0,0,1.3-.2,1.81,1.81,0,0,0,.83-.57,1.4,1.4,0,0,0,.29-.87h0a1.31,1.31,0,0,0-.37-1,2.8,2.8,0,0,0-1.32-.6l-1.77-.43a4.92,4.92,0,0,1-2.36-1.14,2.62,2.62,0,0,1-.77-2h0a2.91,2.91,0,0,1,.52-1.71,3.51,3.51,0,0,1,1.45-1.16,5.29,5.29,0,0,1,2.13-.41,4.93,4.93,0,0,1,2.14.43,3.63,3.63,0,0,1,1.43,1.18,3.32,3.32,0,0,1,.58,1.68v.14h-1.78v-.07a1.92,1.92,0,0,0-.72-1.31,2.52,2.52,0,0,0-1.65-.5,3,3,0,0,0-1.17.21,1.64,1.64,0,0,0-.75.57,1.45,1.45,0,0,0-.27.87h0a1.28,1.28,0,0,0,.41,1,2.84,2.84,0,0,0,1.33.63l1.78.43a4.84,4.84,0,0,1,2.38,1.12,2.63,2.63,0,0,1,.69,1.91h0a2.79,2.79,0,0,1-.57,1.73,3.68,3.68,0,0,1-1.54,1.17,5.48,5.48,0,0,1-2.23.43A5.61,5.61,0,0,1,170.63,289.09Z"/><path class="cls-13" d="M179.17,278.12H181v1.59h0a3.63,3.63,0,0,1,1.32-1.29,4.08,4.08,0,0,1,2.12-.51,3.65,3.65,0,0,1,2.85,1.11,4.3,4.3,0,0,1,1,3v7.25h-1.87v-6.92a3.07,3.07,0,0,0-.64-2.09,2.45,2.45,0,0,0-1.93-.72,2.9,2.9,0,0,0-1.53.39,2.65,2.65,0,0,0-1,1.1,3.67,3.67,0,0,0-.36,1.67v6.57h-1.87Z"/><path class="cls-13" d="M192.61,288.8a4.53,4.53,0,0,1-1.78-2,7,7,0,0,1-.61-3h0a7,7,0,0,1,.62-3.05,4.89,4.89,0,0,1,1.75-2.05,5.23,5.23,0,0,1,5.28,0,4.59,4.59,0,0,1,1.69,2,7,7,0,0,1,.59,2.94v.69h-9v-1.46h8.08l-.95,1.35v-.72a5.12,5.12,0,0,0-.39-2.14,2.78,2.78,0,0,0-1.08-1.27,3,3,0,0,0-1.58-.41,2.92,2.92,0,0,0-2.72,1.72,4.89,4.89,0,0,0-.4,2.1v.72a4.61,4.61,0,0,0,.4,2,3,3,0,0,0,1.14,1.29,3.42,3.42,0,0,0,1.75.44,3.56,3.56,0,0,0,1.27-.21,2.89,2.89,0,0,0,.94-.59,2.1,2.1,0,0,0,.53-.86l0-.1H200l0,.11a3.63,3.63,0,0,1-.53,1.29,4.22,4.22,0,0,1-1,1.06,4.8,4.8,0,0,1-1.39.71,5.82,5.82,0,0,1-1.7.25A5.14,5.14,0,0,1,192.61,288.8Zm3.54-12h-1.69L192,273.62h1.61l1.77,2.45h-.22l1.76-2.45h1.61Z"/><path class="cls-13" d="M202.23,287.08h2l-1.57,5.25h-1.33Z"/><path class="cls-13" d="M210.2,278.12h1.86v1.63h.05a3,3,0,0,1,1.18-1.33,3.44,3.44,0,0,1,1.88-.51,3.57,3.57,0,0,1,1.38.25,3,3,0,0,1,1.07.73,3.28,3.28,0,0,1,.69,1.16h0a3.57,3.57,0,0,1,.83-1.15,3.89,3.89,0,0,1,1.2-.74,4.2,4.2,0,0,1,1.47-.25,3.89,3.89,0,0,1,1.92.45,3.19,3.19,0,0,1,1.27,1.28,4,4,0,0,1,.45,1.94v7.71h-1.87V282a2.54,2.54,0,0,0-.6-1.8,2.26,2.26,0,0,0-1.72-.65,2.48,2.48,0,0,0-1.31.34,2.28,2.28,0,0,0-.89.93,2.87,2.87,0,0,0-.32,1.36v7.1h-1.87V281.8a2.2,2.2,0,0,0-.62-1.63,2.29,2.29,0,0,0-1.67-.61,2.41,2.41,0,0,0-1.31.36,2.5,2.5,0,0,0-.91,1,2.93,2.93,0,0,0-.34,1.4v7H210.2Z"/><path class="cls-13" d="M227.87,278.12h1.86V280h.05a3.06,3.06,0,0,1,1-1.54,2.49,2.49,0,0,1,1.64-.56,3,3,0,0,1,.44,0l.31.05v1.82a1.49,1.49,0,0,0-.38-.08,5.72,5.72,0,0,0-.62,0,2.46,2.46,0,0,0-1.26.32,2.23,2.23,0,0,0-.84.93,3.25,3.25,0,0,0-.3,1.46v6.89h-1.86Z"/><path class="cls-13" d="M234.8,273.79h1.86v15.5H234.8Zm1.44,9.26h.47l4.9-4.93h2.26l-5.29,5.27h-.15l-2.19,2.09Zm1.36.9,1.24-1.24,5.18,6.58h-2.17Z"/><path class="cls-13" d="M245.32,278.12h1.87v1.59h0a3.63,3.63,0,0,1,1.32-1.29,4.08,4.08,0,0,1,2.12-.51,3.65,3.65,0,0,1,2.85,1.11,4.3,4.3,0,0,1,1,3v7.25h-1.87v-6.92a3.07,3.07,0,0,0-.64-2.09,2.45,2.45,0,0,0-1.93-.72,2.93,2.93,0,0,0-1.53.39,2.65,2.65,0,0,0-1,1.1,3.67,3.67,0,0,0-.36,1.67v6.57h-1.87Z"/><path class="cls-13" d="M257.14,275.89a1.13,1.13,0,0,1-.34-.83,1.1,1.1,0,0,1,.34-.83,1.18,1.18,0,0,1,1.66,0,1.14,1.14,0,0,1,.34.83,1.17,1.17,0,0,1-.34.83,1.18,1.18,0,0,1-1.66,0Zm-.11,2.23h1.87v11.17H257Z"/><path class="cls-13" d="M266,278.12h1.87v1.59h0a3.6,3.6,0,0,1,1.31-1.29,4.1,4.1,0,0,1,2.13-.51,3.68,3.68,0,0,1,2.85,1.11,4.29,4.29,0,0,1,1,3v7.25h-1.86v-6.92a3.13,3.13,0,0,0-.64-2.09,2.45,2.45,0,0,0-1.93-.72,3,3,0,0,0-1.54.39,2.69,2.69,0,0,0-1,1.1,3.67,3.67,0,0,0-.36,1.67v6.57H266Z"/><path class="cls-13" d="M278.87,289.09a3.19,3.19,0,0,1-1.31-1.18,3.35,3.35,0,0,1-.46-1.78v0a2.77,2.77,0,0,1,1.06-2.28,5.14,5.14,0,0,1,3-1l4.13-.24v1.45l-3.92.24a3,3,0,0,0-1.73.54,1.5,1.5,0,0,0-.62,1.25v0a1.52,1.52,0,0,0,.61,1.28,2.51,2.51,0,0,0,1.61.47,3.33,3.33,0,0,0,1.59-.37,2.88,2.88,0,0,0,1.12-1,2.67,2.67,0,0,0,.41-1.45v-3.3a2,2,0,0,0-.64-1.6,2.59,2.59,0,0,0-1.81-.59,3,3,0,0,0-1.74.47,2,2,0,0,0-.82,1.22l0,.09h-1.8v-.12a3.2,3.2,0,0,1,.63-1.67,3.81,3.81,0,0,1,1.49-1.2,6,6,0,0,1,4.55,0,3.45,3.45,0,0,1,1.49,1.27,3.52,3.52,0,0,1,.53,1.94v7.72h-1.87v-1.81h0a4,4,0,0,1-.86,1.07,4.19,4.19,0,0,1-1.21.71,4.48,4.48,0,0,1-3.37-.17Z"/></g><path class="cls-13" d="M294.81,288.79a4.57,4.57,0,0,1-1.66-2,7.27,7.27,0,0,1-.59-3.06h0a7.28,7.28,0,0,1,.59-3.07,4.8,4.8,0,0,1,1.66-2,4.28,4.28,0,0,1,2.46-.71,4.09,4.09,0,0,1,2.12.55,4,4,0,0,1,1.46,1.53h0v-6.2h1.87v15.5h-1.87V287.4h0a4,4,0,0,1-1.44,1.54,3.85,3.85,0,0,1-2.11.57A4.34,4.34,0,0,1,294.81,288.79Zm4.53-1.45a3.49,3.49,0,0,0,1.15-1.45,5.47,5.47,0,0,0,.41-2.18h0a5.23,5.23,0,0,0-.42-2.18,3.46,3.46,0,0,0-1.14-1.44,2.76,2.76,0,0,0-1.67-.52,3,3,0,0,0-1.71.5,3.28,3.28,0,0,0-1.11,1.43,5.87,5.87,0,0,0-.38,2.21h0a5.91,5.91,0,0,0,.38,2.21,3.17,3.17,0,0,0,1.11,1.43,2.88,2.88,0,0,0,1.71.5A2.82,2.82,0,0,0,299.34,287.34Z"/><path class="cls-13" d="M305.38,273.79h1.87v15.5h-1.87Z"/><path class="cls-13" d="M311.5,289a3.21,3.21,0,0,1-1.32-1.43,4.86,4.86,0,0,1-.46-2.2v-7.25h1.87V285a3.06,3.06,0,0,0,.64,2.09,2.45,2.45,0,0,0,1.93.72,2.93,2.93,0,0,0,1.53-.39,2.61,2.61,0,0,0,1-1.11,3.63,3.63,0,0,0,.36-1.66v-6.57h1.87v11.17h-1.87V287.7h0a3.63,3.63,0,0,1-1.31,1.3,4.1,4.1,0,0,1-2.13.51A4,4,0,0,1,311.5,289Z"/><path class="cls-13" d="M321.13,288l6.18-8.26v0h-6.17v-1.55h8.29v1.36l-6.13,8.23v0h6.17v1.54h-8.34Zm5-11.12h-1.7L322,273.62h1.61l1.77,2.45h-.22l1.76-2.45h1.61Z"/><path class="cls-13" d="M331.55,278.12h1.87v1.59h0a3.6,3.6,0,0,1,1.31-1.29,4.12,4.12,0,0,1,2.13-.51,3.68,3.68,0,0,1,2.85,1.11,4.3,4.3,0,0,1,1,3v7.25H338.9v-6.92a3.13,3.13,0,0,0-.64-2.09,2.45,2.45,0,0,0-1.93-.72,3,3,0,0,0-1.54.39,2.69,2.69,0,0,0-1,1.1,3.67,3.67,0,0,0-.36,1.67v6.57h-1.87Z"/><path class="cls-13" d="M343.26,278.12h1.87v11.17h-1.87Zm0-1.28,1.84-3.22h1.95l-2.35,3.22Z"/><path class="cls-13" d="M349.56,288.79a4.66,4.66,0,0,1-1.8-2,7,7,0,0,1-.63-3.07v0a6.83,6.83,0,0,1,.64-3.06,4.88,4.88,0,0,1,1.8-2,5.14,5.14,0,0,1,2.71-.7,5,5,0,0,1,2.4.54,4.36,4.36,0,0,1,1.57,1.4,4.07,4.07,0,0,1,.69,1.82l0,.08h-1.83l0-.08a3,3,0,0,0-.9-1.48,2.75,2.75,0,0,0-1.93-.63,2.92,2.92,0,0,0-1.7.51,3.36,3.36,0,0,0-1.13,1.44,5.3,5.3,0,0,0-.41,2.2h0a5.53,5.53,0,0,0,.41,2.22,3.28,3.28,0,0,0,1.15,1.42,3,3,0,0,0,1.7.49,2.69,2.69,0,0,0,2.82-2.1l0-.09H357v.08a4.09,4.09,0,0,1-.78,1.91,4.42,4.42,0,0,1-1.63,1.36,5,5,0,0,1-2.26.5A5.11,5.11,0,0,1,349.56,288.79Zm3.59-12h-1.69L349,273.62h1.61l1.77,2.45h-.22l1.76-2.45h1.61Z"/><path class="cls-13" d="M360.54,288.8a4.57,4.57,0,0,1-1.77-2,6.85,6.85,0,0,1-.62-3h0a7.16,7.16,0,0,1,.62-3.05,5,5,0,0,1,1.75-2.05,5.23,5.23,0,0,1,5.28,0,4.53,4.53,0,0,1,1.69,2,6.83,6.83,0,0,1,.59,2.94v.69h-9v-1.46h8.08l-.94,1.35v-.72a5.11,5.11,0,0,0-.4-2.14,2.78,2.78,0,0,0-1.08-1.27,3,3,0,0,0-1.58-.41,2.94,2.94,0,0,0-1.6.44,2.87,2.87,0,0,0-1.11,1.28,4.74,4.74,0,0,0-.41,2.1v.72a4.61,4.61,0,0,0,.4,2,3,3,0,0,0,1.14,1.29,3.43,3.43,0,0,0,1.76.44,3.54,3.54,0,0,0,1.26-.21,2.69,2.69,0,0,0,.94-.59,2.1,2.1,0,0,0,.53-.86l0-.1h1.83l0,.11a3.63,3.63,0,0,1-.53,1.29,4.17,4.17,0,0,1-1,1.06,5,5,0,0,1-1.4.71,5.77,5.77,0,0,1-1.7.25A5.19,5.19,0,0,1,360.54,288.8Z"/><path class="cls-13" d="M370.11,273.79H372v15.5h-1.87Zm1.45,9.26H372l4.89-4.93h2.27l-5.29,5.27h-.16l-2.18,2.09Zm1.36.9,1.24-1.24,5.18,6.58h-2.17Z"/><path class="cls-13" d="M291.89,293.27V292h87.54v1.29Z"/><g class="cls-12"><path class="cls-13" d="M381.49,289.05a1.18,1.18,0,0,1-.35-.87,1.15,1.15,0,0,1,.35-.88,1.27,1.27,0,0,1,1.75,0,1.18,1.18,0,0,1,.34.88,1.21,1.21,0,0,1-.34.87,1.27,1.27,0,0,1-1.75,0Zm-.1-15.26h1.94l-.13,10.36h-1.68Z"/></g></g></g></g><g id="Group_89" data-name="Group 89"><path id="Rectangle_4" data-name="Rectangle 4" class="cls-13" d="M271.85,110.29h342a28,28,0,0,1,28,28h0v28h-370a28,28,0,0,1-28-28h0A28,28,0,0,1,271.85,110.29Z"/><g id="Pamatuješ_si_ten_náš_nákup_z_makra_" data-name="Pamatuješ si ten náš nákup z makra " class="cls-12"><g class="cls-12"><path class="cls-10" d="M268.35,129.79h1.94v15.5h-1.94Zm1,8.25h4.06a3.64,3.64,0,0,0,2.58-.86,3.14,3.14,0,0,0,.91-2.39v0a3.11,3.11,0,0,0-.91-2.39,3.64,3.64,0,0,0-2.58-.86h-4.06v-1.72h4.55a5.24,5.24,0,0,1,2.58.62,4.6,4.6,0,0,1,1.76,1.74,5.21,5.21,0,0,1,.64,2.59v0a5.22,5.22,0,0,1-.64,2.6,4.6,4.6,0,0,1-1.76,1.77,5.14,5.14,0,0,1-2.58.63h-4.55Z"/><path class="cls-10" d="M281.12,145.09a3.16,3.16,0,0,1-1.3-1.18,3.35,3.35,0,0,1-.47-1.78v0a2.78,2.78,0,0,1,1.07-2.28,5.08,5.08,0,0,1,3-1l4.14-.24v1.45l-3.92.24a3,3,0,0,0-1.74.54,1.5,1.5,0,0,0-.62,1.25v0a1.54,1.54,0,0,0,.61,1.28,2.54,2.54,0,0,0,1.62.47,3.32,3.32,0,0,0,1.58-.37,2.88,2.88,0,0,0,1.12-1,2.58,2.58,0,0,0,.41-1.45v-3.3a2,2,0,0,0-.64-1.6,2.58,2.58,0,0,0-1.81-.59,3,3,0,0,0-1.73.47,1.93,1.93,0,0,0-.82,1.22l0,.09h-1.81v-.12a3.38,3.38,0,0,1,.63-1.67,3.77,3.77,0,0,1,1.5-1.2,6,6,0,0,1,4.55,0,3.34,3.34,0,0,1,2,3.21v7.72H286.6v-1.81h0a3.66,3.66,0,0,1-.86,1.07,4,4,0,0,1-2.63,1A4.31,4.31,0,0,1,281.12,145.09Z"/><path class="cls-10" d="M290.85,134.12h1.87v1.63h0a3,3,0,0,1,1.18-1.33,3.44,3.44,0,0,1,1.88-.51,3.57,3.57,0,0,1,1.38.25,3,3,0,0,1,1.07.73,3.28,3.28,0,0,1,.69,1.16h0a3.57,3.57,0,0,1,.83-1.15,3.82,3.82,0,0,1,1.21-.74,4.11,4.11,0,0,1,1.46-.25,3.89,3.89,0,0,1,1.92.45,3.19,3.19,0,0,1,1.27,1.28,4,4,0,0,1,.45,1.94v7.71h-1.87V138a2.54,2.54,0,0,0-.6-1.8,2.26,2.26,0,0,0-1.72-.65,2.48,2.48,0,0,0-1.31.34,2.35,2.35,0,0,0-.89.93,2.87,2.87,0,0,0-.32,1.36v7.1h-1.87V137.8a2.2,2.2,0,0,0-.62-1.63,2.27,2.27,0,0,0-1.67-.61,2.41,2.41,0,0,0-1.31.36,2.5,2.5,0,0,0-.91,1,2.92,2.92,0,0,0-.33,1.4v7h-1.87Z"/><path class="cls-10" d="M309.84,145.09a3.13,3.13,0,0,1-1.31-1.18,3.35,3.35,0,0,1-.46-1.78v0a2.77,2.77,0,0,1,1.06-2.28,5.11,5.11,0,0,1,3-1l4.13-.24v1.45l-3.92.24a3,3,0,0,0-1.73.54,1.47,1.47,0,0,0-.62,1.25v0a1.53,1.53,0,0,0,.6,1.28,2.56,2.56,0,0,0,1.62.47,3.33,3.33,0,0,0,1.59-.37,2.85,2.85,0,0,0,1.11-1,2.59,2.59,0,0,0,.42-1.45v-3.3a2.08,2.08,0,0,0-.64-1.6,2.59,2.59,0,0,0-1.81-.59,3,3,0,0,0-1.74.47,2,2,0,0,0-.82,1.22l0,.09h-1.81l0-.12a3.28,3.28,0,0,1,.62-1.67,3.77,3.77,0,0,1,1.5-1.2,6,6,0,0,1,4.55,0,3.45,3.45,0,0,1,1.49,1.27,3.52,3.52,0,0,1,.53,1.94v7.72h-1.87v-1.81h-.05a3.66,3.66,0,0,1-.86,1.07,4.14,4.14,0,0,1-1.2.71,4.48,4.48,0,0,1-3.37-.17Z"/><path class="cls-10" d="M320.89,144.78a3.11,3.11,0,0,1-.76-2.33v-6.78H318.5v-1.55h1.63v-3h1.93v3h2.13v1.55h-2.13v6.76a1.5,1.5,0,0,0,.39,1.21,1.78,1.78,0,0,0,1.14.32l.33,0,.27,0v1.51l-.45,0a4.93,4.93,0,0,1-.55,0A3.25,3.25,0,0,1,320.89,144.78Z"/><path class="cls-10" d="M327.91,145a3.33,3.33,0,0,1-1.32-1.43,5,5,0,0,1-.46-2.2v-7.25H328V141a3.11,3.11,0,0,0,.64,2.09,2.45,2.45,0,0,0,1.93.72,3,3,0,0,0,1.54-.39,2.65,2.65,0,0,0,1-1.11,3.63,3.63,0,0,0,.36-1.66v-6.57h1.87v11.17h-1.87V143.7h0a3.63,3.63,0,0,1-1.31,1.3,4.62,4.62,0,0,1-4.22,0Z"/><path class="cls-10" d="M336.11,149.06h-.18v-1.64h.29a1.85,1.85,0,0,0,1.28-.35,1.67,1.67,0,0,0,.38-1.27V134.12h1.86v11.64a3.29,3.29,0,0,1-.83,2.5,3.64,3.64,0,0,1-2.62.8ZM338,131.89a1.13,1.13,0,0,1-.34-.83,1.1,1.1,0,0,1,.34-.83,1.13,1.13,0,0,1,.83-.34,1.16,1.16,0,0,1,1.17,1.17,1.13,1.13,0,0,1-.34.83,1.1,1.1,0,0,1-.83.34A1.13,1.13,0,0,1,338,131.89Z"/><path class="cls-10" d="M344.13,144.8a4.57,4.57,0,0,1-1.77-2,7,7,0,0,1-.62-3h0a7,7,0,0,1,.63-3.05,4.82,4.82,0,0,1,1.75-2.05,4.73,4.73,0,0,1,2.65-.73,4.78,4.78,0,0,1,2.63.7,4.66,4.66,0,0,1,1.69,2,7,7,0,0,1,.59,2.94v.69h-9v-1.46h8.08l-.95,1.35v-.72a5.12,5.12,0,0,0-.39-2.14,2.78,2.78,0,0,0-1.08-1.27,3.07,3.07,0,0,0-1.58-.41,2.92,2.92,0,0,0-2.72,1.72,4.88,4.88,0,0,0-.41,2.1v.72a4.6,4.6,0,0,0,.41,2,3,3,0,0,0,1.14,1.29,3.39,3.39,0,0,0,1.75.44,3.6,3.6,0,0,0,1.27-.21,2.74,2.74,0,0,0,.93-.59,2.24,2.24,0,0,0,.54-.86l0-.1h1.84l0,.11a3.83,3.83,0,0,1-.53,1.29,4.22,4.22,0,0,1-1,1.06,4.93,4.93,0,0,1-1.39.71,5.82,5.82,0,0,1-1.7.25A5.2,5.2,0,0,1,344.13,144.8Z"/><path class="cls-10" d="M355.26,145.09a3.65,3.65,0,0,1-1.51-1.17,3.53,3.53,0,0,1-.67-1.75l0-.1h1.87l0,.11a2,2,0,0,0,.8,1.3,2.93,2.93,0,0,0,1.77.47,3.78,3.78,0,0,0,1.3-.2,1.76,1.76,0,0,0,.83-.57,1.4,1.4,0,0,0,.29-.87h0a1.31,1.31,0,0,0-.36-1,2.9,2.9,0,0,0-1.33-.6l-1.77-.43a4.88,4.88,0,0,1-2.35-1.14,2.58,2.58,0,0,1-.77-2h0a2.91,2.91,0,0,1,.52-1.71,3.45,3.45,0,0,1,1.45-1.16,5.29,5.29,0,0,1,2.13-.41,4.85,4.85,0,0,1,2.13.43,3.56,3.56,0,0,1,1.43,1.18,3.33,3.33,0,0,1,.59,1.68v.14h-1.79v-.07a2,2,0,0,0-.71-1.31,2.56,2.56,0,0,0-1.65-.5,3,3,0,0,0-1.17.21,1.72,1.72,0,0,0-.76.57,1.51,1.51,0,0,0-.26.87h0a1.25,1.25,0,0,0,.41,1,2.79,2.79,0,0,0,1.33.63l1.77.43a4.88,4.88,0,0,1,2.39,1.12,2.67,2.67,0,0,1,.68,1.91h0a2.84,2.84,0,0,1-.56,1.73,3.71,3.71,0,0,1-1.55,1.17,5.44,5.44,0,0,1-2.23.43A5.56,5.56,0,0,1,355.26,145.09Zm3.12-12.25h-1.69l-2.42-3.22h1.61l1.77,2.45h-.22l1.76-2.45h1.61Z"/><path class="cls-10" d="M370,145.09a3.58,3.58,0,0,1-1.51-1.17,3.64,3.64,0,0,1-.68-1.75v-.1h1.87l0,.11a2.09,2.09,0,0,0,.81,1.3,2.93,2.93,0,0,0,1.77.47,3.82,3.82,0,0,0,1.3-.2,1.76,1.76,0,0,0,.83-.57,1.4,1.4,0,0,0,.29-.87h0a1.27,1.27,0,0,0-.37-1,2.8,2.8,0,0,0-1.32-.6l-1.77-.43a4.88,4.88,0,0,1-2.35-1.14,2.59,2.59,0,0,1-.78-2h0a2.91,2.91,0,0,1,.53-1.71,3.45,3.45,0,0,1,1.45-1.16,5.29,5.29,0,0,1,2.13-.41,4.91,4.91,0,0,1,2.13.43,3.56,3.56,0,0,1,1.43,1.18,3.23,3.23,0,0,1,.58,1.68l0,.14h-1.79v-.07a2,2,0,0,0-.71-1.31,2.56,2.56,0,0,0-1.65-.5,3,3,0,0,0-1.17.21,1.72,1.72,0,0,0-.76.57,1.44,1.44,0,0,0-.26.87h0a1.25,1.25,0,0,0,.41,1,2.79,2.79,0,0,0,1.33.63l1.77.43a4.8,4.8,0,0,1,2.38,1.12,2.63,2.63,0,0,1,.69,1.91h0a2.84,2.84,0,0,1-.56,1.73,3.71,3.71,0,0,1-1.55,1.17,5.44,5.44,0,0,1-2.23.43A5.56,5.56,0,0,1,370,145.09Z"/><path class="cls-10" d="M378.77,131.89a1.13,1.13,0,0,1-.34-.83,1.1,1.1,0,0,1,.34-.83,1.13,1.13,0,0,1,.83-.34,1.16,1.16,0,0,1,1.17,1.17,1.13,1.13,0,0,1-.34.83,1.1,1.1,0,0,1-.83.34A1.13,1.13,0,0,1,378.77,131.89Zm-.11,2.23h1.87v11.17h-1.87Z"/><path class="cls-10" d="M388.92,144.78a3.11,3.11,0,0,1-.76-2.33v-6.78h-1.63v-1.55h1.63v-3h1.93v3h2.13v1.55h-2.13v6.76a1.5,1.5,0,0,0,.39,1.21,1.78,1.78,0,0,0,1.14.32l.33,0,.27,0v1.51l-.45,0a4.93,4.93,0,0,1-.55,0A3.25,3.25,0,0,1,388.92,144.78Z"/><path class="cls-10" d="M395.74,144.8a4.57,4.57,0,0,1-1.77-2,6.85,6.85,0,0,1-.62-3h0a7.16,7.16,0,0,1,.62-3.05,5,5,0,0,1,1.75-2.05,5.23,5.23,0,0,1,5.28,0,4.53,4.53,0,0,1,1.69,2,6.83,6.83,0,0,1,.59,2.94v.69h-9v-1.46h8.08l-.94,1.35v-.72a5.11,5.11,0,0,0-.4-2.14,2.78,2.78,0,0,0-1.08-1.27,3,3,0,0,0-1.58-.41,2.94,2.94,0,0,0-1.6.44,2.87,2.87,0,0,0-1.11,1.28,4.74,4.74,0,0,0-.41,2.1v.72a4.61,4.61,0,0,0,.4,2,3,3,0,0,0,1.15,1.29,3.37,3.37,0,0,0,1.75.44,3.54,3.54,0,0,0,1.26-.21,2.69,2.69,0,0,0,.94-.59,2.24,2.24,0,0,0,.54-.86l0-.1h1.84l0,.11a3.63,3.63,0,0,1-.53,1.29,4.17,4.17,0,0,1-1,1.06,5,5,0,0,1-1.4.71,5.77,5.77,0,0,1-1.7.25A5.19,5.19,0,0,1,395.74,144.8Z"/><path class="cls-10" d="M405.16,134.12H407v1.59h.05a3.53,3.53,0,0,1,1.31-1.29,4.08,4.08,0,0,1,2.12-.51,3.68,3.68,0,0,1,2.86,1.11,4.34,4.34,0,0,1,1,3v7.25h-1.87v-6.92a3.07,3.07,0,0,0-.64-2.09,2.44,2.44,0,0,0-1.93-.72,3,3,0,0,0-1.53.39,2.65,2.65,0,0,0-1,1.1,3.67,3.67,0,0,0-.36,1.67v6.57h-1.87Z"/><path class="cls-10" d="M421.27,134.12h1.87v1.59h0a3.6,3.6,0,0,1,1.31-1.29,4.1,4.1,0,0,1,2.13-.51,3.68,3.68,0,0,1,2.85,1.11,4.29,4.29,0,0,1,1,3v7.25h-1.87v-6.92a3.12,3.12,0,0,0-.63-2.09,2.45,2.45,0,0,0-1.93-.72,3,3,0,0,0-1.54.39,2.62,2.62,0,0,0-1,1.1,3.67,3.67,0,0,0-.36,1.67v6.57h-1.87Z"/><path class="cls-10" d="M434.18,145.09a3.19,3.19,0,0,1-1.31-1.18,3.35,3.35,0,0,1-.46-1.78v0a2.77,2.77,0,0,1,1.06-2.28,5.11,5.11,0,0,1,3-1l4.13-.24v1.45l-3.92.24a3,3,0,0,0-1.73.54,1.47,1.47,0,0,0-.62,1.25v0a1.52,1.52,0,0,0,.61,1.28,2.51,2.51,0,0,0,1.61.47,3.33,3.33,0,0,0,1.59-.37,2.78,2.78,0,0,0,1.11-1,2.59,2.59,0,0,0,.42-1.45v-3.3a2.08,2.08,0,0,0-.64-1.6,2.59,2.59,0,0,0-1.81-.59,3,3,0,0,0-1.74.47,2,2,0,0,0-.82,1.22l0,.09h-1.8v-.12a3.2,3.2,0,0,1,.63-1.67,3.81,3.81,0,0,1,1.49-1.2,6,6,0,0,1,4.55,0,3.45,3.45,0,0,1,1.49,1.27,3.52,3.52,0,0,1,.53,1.94v7.72h-1.87v-1.81h-.05a3.79,3.79,0,0,1-.85,1.07,4.33,4.33,0,0,1-1.21.71,4.48,4.48,0,0,1-3.37-.17Zm2.13-12.25,1.83-3.22h2l-2.35,3.22Z"/><path class="cls-10" d="M445.6,145.09a3.51,3.51,0,0,1-2.18-2.92v-.1h1.87l0,.11a2,2,0,0,0,.8,1.3,3,3,0,0,0,1.78.47,3.86,3.86,0,0,0,1.3-.2,1.78,1.78,0,0,0,.82-.57,1.34,1.34,0,0,0,.29-.87h0a1.31,1.31,0,0,0-.36-1,2.9,2.9,0,0,0-1.32-.6l-1.78-.43a4.92,4.92,0,0,1-2.35-1.14,2.62,2.62,0,0,1-.77-2h0a2.91,2.91,0,0,1,.52-1.71,3.51,3.51,0,0,1,1.45-1.16,5.29,5.29,0,0,1,2.13-.41,4.85,4.85,0,0,1,2.13.43,3.56,3.56,0,0,1,1.43,1.18,3.33,3.33,0,0,1,.59,1.68v.14h-1.78l0-.07a2,2,0,0,0-.71-1.31,2.52,2.52,0,0,0-1.65-.5,3,3,0,0,0-1.17.21,1.72,1.72,0,0,0-.76.57,1.51,1.51,0,0,0-.26.87h0a1.28,1.28,0,0,0,.41,1,2.79,2.79,0,0,0,1.33.63l1.77.43a4.88,4.88,0,0,1,2.39,1.12,2.63,2.63,0,0,1,.68,1.91h0a2.78,2.78,0,0,1-.56,1.73,3.71,3.71,0,0,1-1.55,1.17,5.41,5.41,0,0,1-2.23.43A5.56,5.56,0,0,1,445.6,145.09Zm3.12-12.25H447l-2.42-3.22h1.61l1.77,2.45h-.22l1.76-2.45h1.61Z"/><path class="cls-10" d="M458.65,134.12h1.87v1.59h0a3.6,3.6,0,0,1,1.31-1.29,4.12,4.12,0,0,1,2.13-.51,3.68,3.68,0,0,1,2.85,1.11,4.3,4.3,0,0,1,1,3v7.25H466v-6.92a3.13,3.13,0,0,0-.64-2.09,2.45,2.45,0,0,0-1.93-.72,3,3,0,0,0-1.54.39,2.69,2.69,0,0,0-1,1.1,3.67,3.67,0,0,0-.36,1.67v6.57h-1.87Z"/><path class="cls-10" d="M471.56,145.09a3.1,3.1,0,0,1-1.3-1.18,3.35,3.35,0,0,1-.47-1.78v0a2.77,2.77,0,0,1,1.06-2.28,5.14,5.14,0,0,1,3-1l4.14-.24v1.45l-3.93.24a3,3,0,0,0-1.73.54,1.5,1.5,0,0,0-.62,1.25v0a1.52,1.52,0,0,0,.61,1.28,2.52,2.52,0,0,0,1.62.47,3.32,3.32,0,0,0,1.58-.37,2.88,2.88,0,0,0,1.12-1,2.67,2.67,0,0,0,.41-1.45v-3.3a2,2,0,0,0-.64-1.6,2.58,2.58,0,0,0-1.81-.59,3,3,0,0,0-1.73.47,2,2,0,0,0-.83,1.22l0,.09h-1.8v-.12a3.38,3.38,0,0,1,.63-1.67,3.77,3.77,0,0,1,1.5-1.2,5.24,5.24,0,0,1,2.26-.44,5.41,5.41,0,0,1,2.29.45,3.42,3.42,0,0,1,1.48,1.27,3.52,3.52,0,0,1,.53,1.94v7.72H477v-1.81h0a3.83,3.83,0,0,1-.86,1.07,4,4,0,0,1-2.63,1A4.31,4.31,0,0,1,471.56,145.09Zm2.13-12.25,1.84-3.22h2l-2.35,3.22Z"/><path class="cls-10" d="M481.43,129.79h1.87v15.5h-1.87Zm1.45,9.26h.47l4.89-4.93h2.27l-5.29,5.27h-.16l-2.18,2.09Zm1.36.9,1.24-1.24,5.18,6.58h-2.17Z"/><path class="cls-10" d="M493.69,145a3.29,3.29,0,0,1-1.33-1.43,5,5,0,0,1-.45-2.2v-7.25h1.87V141a3.06,3.06,0,0,0,.64,2.09,2.42,2.42,0,0,0,1.92.72,3,3,0,0,0,1.54-.39,2.68,2.68,0,0,0,1-1.11,3.63,3.63,0,0,0,.36-1.66v-6.57h1.86v11.17h-1.86V143.7h-.05a3.6,3.6,0,0,1-1.3,1.3,4.11,4.11,0,0,1-2.14.51A4,4,0,0,1,493.69,145Z"/><path class="cls-10" d="M503.55,134.12h1.87V136h0a4,4,0,0,1,2.08-1.85,4.13,4.13,0,0,1,1.47-.25,4.39,4.39,0,0,1,2.5.71,4.77,4.77,0,0,1,1.66,2,7.44,7.44,0,0,1,.59,3.07h0a7.26,7.26,0,0,1-.6,3.06,4.79,4.79,0,0,1-1.65,2,4.3,4.3,0,0,1-2.47.72,4.45,4.45,0,0,1-1.47-.25,3.78,3.78,0,0,1-1.22-.73,4.22,4.22,0,0,1-.89-1.11h0v5.63h-1.87Zm6.8,9.23a3.25,3.25,0,0,0,1.11-1.44,5.64,5.64,0,0,0,.39-2.19h0a5.72,5.72,0,0,0-.39-2.22,3.17,3.17,0,0,0-1.11-1.43,3,3,0,0,0-1.71-.5,2.78,2.78,0,0,0-1.67.52,3.4,3.4,0,0,0-1.15,1.44,5.45,5.45,0,0,0-.41,2.19h0a5.22,5.22,0,0,0,.42,2.17,3.56,3.56,0,0,0,1.14,1.45,2.84,2.84,0,0,0,1.67.51A3,3,0,0,0,510.35,143.35Z"/><path class="cls-10" d="M519.91,144l6.18-8.26v0h-6.17v-1.55h8.3v1.36l-6.14,8.23v0h6.17v1.54h-8.34Z"/><path class="cls-10" d="M535,134.12h1.87v1.63h0a3,3,0,0,1,1.19-1.33,3.41,3.41,0,0,1,1.88-.51,3.64,3.64,0,0,1,1.38.25,3,3,0,0,1,1.06.73,3.14,3.14,0,0,1,.69,1.16h.05a3.43,3.43,0,0,1,.83-1.15,3.78,3.78,0,0,1,1.2-.74,4.16,4.16,0,0,1,1.47-.25,4,4,0,0,1,1.92.45,3.26,3.26,0,0,1,1.27,1.28,4,4,0,0,1,.45,1.94v7.71h-1.87V138a2.5,2.5,0,0,0-.61-1.8,2.22,2.22,0,0,0-1.71-.65,2.46,2.46,0,0,0-1.31.34,2.28,2.28,0,0,0-.89.93,2.77,2.77,0,0,0-.33,1.36v7.1h-1.86V137.8a2.17,2.17,0,0,0-.63-1.63,2.25,2.25,0,0,0-1.66-.61,2.42,2.42,0,0,0-1.32.36,2.65,2.65,0,0,0-.91,1,2.92,2.92,0,0,0-.33,1.4v7H535Z"/><path class="cls-10" d="M553.94,145.09a3.16,3.16,0,0,1-1.3-1.18,3.35,3.35,0,0,1-.47-1.78v0a2.8,2.8,0,0,1,1.06-2.28,5.14,5.14,0,0,1,3-1l4.14-.24v1.45l-3.92.24a3,3,0,0,0-1.74.54,1.5,1.5,0,0,0-.62,1.25v0a1.54,1.54,0,0,0,.61,1.28,2.52,2.52,0,0,0,1.62.47,3.32,3.32,0,0,0,1.58-.37,2.88,2.88,0,0,0,1.12-1,2.67,2.67,0,0,0,.41-1.45v-3.3a2,2,0,0,0-.64-1.6,2.58,2.58,0,0,0-1.81-.59,3,3,0,0,0-1.73.47,1.93,1.93,0,0,0-.82,1.22l0,.09h-1.81v-.12a3.38,3.38,0,0,1,.63-1.67,3.77,3.77,0,0,1,1.5-1.2,5.27,5.27,0,0,1,2.26-.44,5.35,5.35,0,0,1,2.29.45,3.34,3.34,0,0,1,2,3.21v7.72h-1.87v-1.81h0a3.83,3.83,0,0,1-.86,1.07,4,4,0,0,1-2.63,1A4.31,4.31,0,0,1,553.94,145.09Z"/><path class="cls-10" d="M563.82,129.79h1.87v15.5h-1.87Zm1.45,9.26h.46l4.9-4.93h2.26l-5.29,5.27h-.15l-2.18,2.09Zm1.35.9,1.25-1.24,5.17,6.58h-2.17Z"/><path class="cls-10" d="M574.34,134.12h1.87V136h0a3,3,0,0,1,1-1.54,2.49,2.49,0,0,1,1.64-.56,3,3,0,0,1,.44,0l.31,0v1.82a1.49,1.49,0,0,0-.38-.08,5.85,5.85,0,0,0-.62,0,2.46,2.46,0,0,0-1.26.32,2.11,2.11,0,0,0-.84.93,3.25,3.25,0,0,0-.3,1.46v6.89h-1.87Z"/><path class="cls-10" d="M582.23,145.09a3.13,3.13,0,0,1-1.31-1.18,3.35,3.35,0,0,1-.46-1.78v0a2.77,2.77,0,0,1,1.06-2.28,5.11,5.11,0,0,1,3-1l4.13-.24v1.45l-3.92.24a3.1,3.1,0,0,0-1.74.54,1.49,1.49,0,0,0-.61,1.25v0a1.52,1.52,0,0,0,.61,1.28,2.51,2.51,0,0,0,1.61.47,3.33,3.33,0,0,0,1.59-.37,2.78,2.78,0,0,0,1.11-1,2.59,2.59,0,0,0,.42-1.45v-3.3a2.08,2.08,0,0,0-.64-1.6,2.59,2.59,0,0,0-1.81-.59,3,3,0,0,0-1.74.47,2,2,0,0,0-.82,1.22l0,.09h-1.81l0-.12a3.28,3.28,0,0,1,.62-1.67,3.84,3.84,0,0,1,1.5-1.2,6,6,0,0,1,4.55,0,3.45,3.45,0,0,1,1.49,1.27,3.52,3.52,0,0,1,.53,1.94v7.72h-1.87v-1.81h-.05a3.66,3.66,0,0,1-.86,1.07,4.14,4.14,0,0,1-1.2.71,4.48,4.48,0,0,1-3.37-.17Z"/><path class="cls-10" d="M594.7,139.51a3.47,3.47,0,0,1,.23-1.28,3.14,3.14,0,0,1,.71-1.06,6.08,6.08,0,0,1,1.21-.92,5.9,5.9,0,0,0,1-.76,2.37,2.37,0,0,0,.56-.81,2.89,2.89,0,0,0,.17-1h0a2.19,2.19,0,0,0-1.25-2,3.45,3.45,0,0,0-2.79,0,2.44,2.44,0,0,0-.94.83,2.69,2.69,0,0,0-.41,1.25l0,.11h-1.83v-.14a4.51,4.51,0,0,1,.62-2,3.84,3.84,0,0,1,1.54-1.47,5.91,5.91,0,0,1,4.89,0,4,4,0,0,1,1.6,1.39,3.57,3.57,0,0,1,.58,2h0a3.87,3.87,0,0,1-.61,2.17,5.25,5.25,0,0,1-1.64,1.53,6,6,0,0,0-1.06.76,2.29,2.29,0,0,0-.54.78,3,3,0,0,0-.15,1v.7H594.7Zm.07,5.54a1.22,1.22,0,0,1-.35-.87,1.19,1.19,0,0,1,.35-.88,1.22,1.22,0,0,1,.88-.35,1.2,1.2,0,0,1,1.22,1.23,1.22,1.22,0,0,1-.35.87,1.18,1.18,0,0,1-.87.35A1.22,1.22,0,0,1,594.77,145.05Z"/></g></g><path id="Rectangle_6" data-name="Rectangle 6" class="cls-13" d="M369.85,173.29h272v28a28,28,0,0,1-28,28h-244a28,28,0,0,1-28-28h0A28,28,0,0,1,369.85,173.29Z"/><g id="Potřeboval_bych_to_zaplatit" data-name="Potřeboval bych to zaplatit" class="cls-12"><g class="cls-12"><path class="cls-10" d="M366.35,192.79h1.94v15.5h-1.94Zm1,8.25h4.06a3.64,3.64,0,0,0,2.58-.86,3.14,3.14,0,0,0,.91-2.39v0a3.11,3.11,0,0,0-.91-2.39,3.64,3.64,0,0,0-2.58-.86h-4.06v-1.72h4.55a5.24,5.24,0,0,1,2.58.62,4.6,4.6,0,0,1,1.76,1.74,5.21,5.21,0,0,1,.64,2.59v0a5.22,5.22,0,0,1-.64,2.6,4.6,4.6,0,0,1-1.76,1.77,5.14,5.14,0,0,1-2.58.63h-4.55Z"/><path class="cls-10" d="M380.15,207.8a4.83,4.83,0,0,1-1.82-2,6.84,6.84,0,0,1-.64-3.07v0a6.81,6.81,0,0,1,.64-3.07,4.78,4.78,0,0,1,1.82-2,5.58,5.58,0,0,1,5.41,0,4.71,4.71,0,0,1,1.82,2,6.81,6.81,0,0,1,.65,3.07v0a6.89,6.89,0,0,1-.65,3.08,4.78,4.78,0,0,1-1.81,2,5.53,5.53,0,0,1-5.42,0Zm4.44-1.44a3.16,3.16,0,0,0,1.13-1.41,5.79,5.79,0,0,0,.4-2.24v0a5.73,5.73,0,0,0-.4-2.23,3.16,3.16,0,0,0-1.14-1.41,3.1,3.1,0,0,0-1.73-.48,3,3,0,0,0-1.7.49,3.11,3.11,0,0,0-1.14,1.41,5.3,5.3,0,0,0-.41,2.22v0A5.43,5.43,0,0,0,380,205a3.11,3.11,0,0,0,1.14,1.41,3.26,3.26,0,0,0,3.44,0Z"/><path class="cls-10" d="M391.24,207.78a3.11,3.11,0,0,1-.76-2.33v-6.78h-1.63v-1.55h1.63v-3h1.93v3h2.13v1.55h-2.13v6.76a1.5,1.5,0,0,0,.39,1.21,1.78,1.78,0,0,0,1.14.32l.33,0,.27,0v1.51l-.45,0a4.93,4.93,0,0,1-.55,0A3.25,3.25,0,0,1,391.24,207.78Z"/><path class="cls-10" d="M400,195.84h-1.7l-2.42-3.22h1.61l1.78,2.45H399l1.76-2.45h1.61Zm-3.45,1.28h1.87V199h0a3.07,3.07,0,0,1,1-1.54,2.45,2.45,0,0,1,1.63-.56,3,3,0,0,1,.44,0l.31,0v1.82a1.49,1.49,0,0,0-.38-.08,5.72,5.72,0,0,0-.62,0,2.46,2.46,0,0,0-1.26.32,2.23,2.23,0,0,0-.84.93,3.25,3.25,0,0,0-.29,1.46v6.89h-1.87Z"/><path class="cls-10" d="M404.62,207.8a4.57,4.57,0,0,1-1.77-2,7,7,0,0,1-.62-3h0a7.16,7.16,0,0,1,.62-3.05,4.91,4.91,0,0,1,1.76-2.05,4.73,4.73,0,0,1,2.65-.73,4.81,4.81,0,0,1,2.63.7,4.66,4.66,0,0,1,1.69,2,7,7,0,0,1,.59,2.94v.69h-9v-1.46h8.07l-.94,1.35v-.72a5.12,5.12,0,0,0-.39-2.14,2.84,2.84,0,0,0-1.08-1.27,3.07,3.07,0,0,0-1.58-.41,2.89,2.89,0,0,0-1.6.44,2.83,2.83,0,0,0-1.12,1.28,4.88,4.88,0,0,0-.41,2.1v.72a4.75,4.75,0,0,0,.4,2,3,3,0,0,0,1.15,1.29,3.39,3.39,0,0,0,1.75.44,3.64,3.64,0,0,0,1.27-.21,2.74,2.74,0,0,0,.93-.59,2.24,2.24,0,0,0,.54-.86l0-.1H412l0,.11a3.83,3.83,0,0,1-.53,1.29,4.4,4.4,0,0,1-1,1.06,4.85,4.85,0,0,1-1.4.71,5.75,5.75,0,0,1-1.69.25A5.2,5.2,0,0,1,404.62,207.8Z"/><path class="cls-10" d="M417.49,207.94a4,4,0,0,1-1.43-1.54H416v1.89h-1.87v-15.5H416V199h.05a3.91,3.91,0,0,1,1.46-1.53,4.05,4.05,0,0,1,2.11-.55,4.29,4.29,0,0,1,2.47.71,4.78,4.78,0,0,1,1.65,2,7.28,7.28,0,0,1,.6,3.07h0a7.42,7.42,0,0,1-.59,3.06,4.71,4.71,0,0,1-1.66,2,4.37,4.37,0,0,1-2.5.72A3.9,3.9,0,0,1,417.49,207.94Zm3.45-1.59a3.17,3.17,0,0,0,1.11-1.43,5.71,5.71,0,0,0,.39-2.21h0a5.67,5.67,0,0,0-.39-2.21,3.28,3.28,0,0,0-1.11-1.43,2.91,2.91,0,0,0-1.7-.5,2.81,2.81,0,0,0-1.68.52,3.46,3.46,0,0,0-1.14,1.44,5.23,5.23,0,0,0-.42,2.18h0a5.3,5.3,0,0,0,.42,2.18,3.4,3.4,0,0,0,1.14,1.45,2.88,2.88,0,0,0,1.68.51A2.84,2.84,0,0,0,420.94,206.35Z"/><path class="cls-10" d="M428.15,207.8a4.77,4.77,0,0,1-1.82-2,6.84,6.84,0,0,1-.65-3.07v0a6.81,6.81,0,0,1,.65-3.07,4.71,4.71,0,0,1,1.82-2,5.08,5.08,0,0,1,2.7-.7,5.14,5.14,0,0,1,2.71.7,4.78,4.78,0,0,1,1.82,2,6.81,6.81,0,0,1,.65,3.07v0a6.89,6.89,0,0,1-.65,3.08,4.85,4.85,0,0,1-1.81,2,5.53,5.53,0,0,1-5.42,0Zm4.43-1.44a3.09,3.09,0,0,0,1.13-1.41,5.61,5.61,0,0,0,.4-2.24v0a5.56,5.56,0,0,0-.4-2.23,3.16,3.16,0,0,0-1.14-1.41,3.07,3.07,0,0,0-1.72-.48,3,3,0,0,0-1.7.49,3.07,3.07,0,0,0-1.15,1.41,5.47,5.47,0,0,0-.41,2.22v0A5.6,5.6,0,0,0,428,205a3.07,3.07,0,0,0,1.15,1.41,3,3,0,0,0,1.72.49A2.94,2.94,0,0,0,432.58,206.36Z"/><path class="cls-10" d="M436.51,197.12h2l3.08,9.18h0l3.09-9.18h1.95l-4.1,11.17h-1.92Z"/><path class="cls-10" d="M449.21,208.09a3.13,3.13,0,0,1-1.31-1.18,3.35,3.35,0,0,1-.47-1.78v0a2.78,2.78,0,0,1,1.07-2.28,5.1,5.1,0,0,1,3-1l4.14-.24v1.45l-3.92.24a3.07,3.07,0,0,0-1.74.54,1.49,1.49,0,0,0-.61,1.25v0a1.53,1.53,0,0,0,.6,1.28,2.56,2.56,0,0,0,1.62.47,3.26,3.26,0,0,0,1.58-.37,2.81,2.81,0,0,0,1.12-1,2.59,2.59,0,0,0,.42-1.45v-3.3a2.08,2.08,0,0,0-.64-1.6,2.59,2.59,0,0,0-1.81-.59,3,3,0,0,0-1.74.47,2,2,0,0,0-.82,1.22l0,.09h-1.81v-.12a3.38,3.38,0,0,1,.63-1.67,3.77,3.77,0,0,1,1.5-1.2,6,6,0,0,1,4.55,0,3.45,3.45,0,0,1,1.49,1.27,3.52,3.52,0,0,1,.52,1.94v7.72h-1.86v-1.81h-.05a3.66,3.66,0,0,1-.86,1.07,4,4,0,0,1-2.63,1A4.26,4.26,0,0,1,449.21,208.09Z"/><path class="cls-10" d="M459,192.79h1.87v15.5H459Z"/><path class="cls-10" d="M471.37,207.94a4,4,0,0,1-1.43-1.54h0v1.89H468v-15.5h1.87V199h0a4,4,0,0,1,1.46-1.53,4.06,4.06,0,0,1,2.12-.55,4.26,4.26,0,0,1,2.46.71,4.8,4.8,0,0,1,1.66,2,7.44,7.44,0,0,1,.59,3.07h0a7.42,7.42,0,0,1-.59,3.06,4.64,4.64,0,0,1-1.66,2,4.35,4.35,0,0,1-2.5.72A3.9,3.9,0,0,1,471.37,207.94Zm3.46-1.59a3.08,3.08,0,0,0,1.1-1.43,5.71,5.71,0,0,0,.39-2.21h0a5.67,5.67,0,0,0-.39-2.21,3.19,3.19,0,0,0-1.1-1.43,3,3,0,0,0-1.71-.5,2.76,2.76,0,0,0-1.67.52,3.48,3.48,0,0,0-1.15,1.44,5.24,5.24,0,0,0-.41,2.18h0a5.3,5.3,0,0,0,.41,2.18,3.47,3.47,0,0,0,1.14,1.45,3.1,3.1,0,0,0,3.39,0Z"/><path class="cls-10" d="M480.21,212l-.45-.05v-1.53l.27,0a1.76,1.76,0,0,0,.33,0,2.76,2.76,0,0,0,1.42-.32,2.22,2.22,0,0,0,.87-1.25l.22-.64-4.14-11.18h2l3.23,9.73-.4-.43h.56l-.4.43,3.23-9.73h2L484.55,209a7.4,7.4,0,0,1-.89,1.74,3.1,3.1,0,0,1-1.2,1,4.09,4.09,0,0,1-1.7.32Z"/><path class="cls-10" d="M491.84,207.79a4.66,4.66,0,0,1-1.8-2,6.84,6.84,0,0,1-.64-3.07v0a6.83,6.83,0,0,1,.65-3.06,4.88,4.88,0,0,1,1.8-2,5.14,5.14,0,0,1,2.71-.7,5,5,0,0,1,2.4.54,4.36,4.36,0,0,1,1.57,1.4,4.19,4.19,0,0,1,.69,1.82v.08h-1.82l0-.08a3,3,0,0,0-.9-1.48,2.77,2.77,0,0,0-1.93-.63,2.92,2.92,0,0,0-1.7.51,3.46,3.46,0,0,0-1.14,1.44,5.47,5.47,0,0,0-.4,2.2h0a5.37,5.37,0,0,0,.41,2.22,3.21,3.21,0,0,0,1.15,1.42,3,3,0,0,0,1.7.49,2.69,2.69,0,0,0,2.82-2.1l0-.09h1.83v.08a4.18,4.18,0,0,1-.77,1.91,4.51,4.51,0,0,1-1.63,1.36,5,5,0,0,1-2.26.5A5.09,5.09,0,0,1,491.84,207.79Z"/><path class="cls-10" d="M501.07,192.79h1.87v6.11h0a3.35,3.35,0,0,1,1.34-1.47,4.16,4.16,0,0,1,2.14-.52,3.72,3.72,0,0,1,3.49,2.17,5.23,5.23,0,0,1,.51,2.37v6.84h-1.87v-6.52a3.47,3.47,0,0,0-.73-2.36,2.54,2.54,0,0,0-2-.85,2.71,2.71,0,0,0-2.52,1.54,3.67,3.67,0,0,0-.36,1.67v6.52h-1.87Z"/><path class="cls-10" d="M518.68,207.78a3.11,3.11,0,0,1-.77-2.33v-6.78h-1.63v-1.55h1.63v-3h1.94v3H522v1.55h-2.12v6.76a1.53,1.53,0,0,0,.38,1.21,1.78,1.78,0,0,0,1.14.32l.33,0,.27,0v1.51l-.44,0a5.07,5.07,0,0,1-.55,0A3.22,3.22,0,0,1,518.68,207.78Z"/><path class="cls-10" d="M525.57,207.8a4.83,4.83,0,0,1-1.82-2,6.84,6.84,0,0,1-.65-3.07v0a6.81,6.81,0,0,1,.65-3.07,4.78,4.78,0,0,1,1.82-2,5.08,5.08,0,0,1,2.7-.7,5.14,5.14,0,0,1,2.71.7,4.78,4.78,0,0,1,1.82,2,6.81,6.81,0,0,1,.65,3.07v0a6.89,6.89,0,0,1-.65,3.08,4.85,4.85,0,0,1-1.81,2,5.53,5.53,0,0,1-5.42,0Zm4.43-1.44a3.09,3.09,0,0,0,1.13-1.41,5.61,5.61,0,0,0,.4-2.24v0a5.56,5.56,0,0,0-.4-2.23A3.16,3.16,0,0,0,530,199a3.07,3.07,0,0,0-1.72-.48,3,3,0,0,0-1.7.49,3.13,3.13,0,0,0-1.15,1.41,5.47,5.47,0,0,0-.41,2.22v0a5.6,5.6,0,0,0,.41,2.24,3.13,3.13,0,0,0,1.15,1.41,3,3,0,0,0,1.72.49A2.94,2.94,0,0,0,530,206.36Z"/><path class="cls-10" d="M539.6,207l6.18-8.26v0h-6.17v-1.55h8.3v1.36l-6.14,8.23v0h6.17v1.54H539.6Z"/><path class="cls-10" d="M551.45,208.09a3.1,3.1,0,0,1-1.3-1.18,3.26,3.26,0,0,1-.47-1.78v0a2.77,2.77,0,0,1,1.06-2.28,5.14,5.14,0,0,1,3-1l4.13-.24v1.45l-3.92.24a3,3,0,0,0-1.73.54,1.5,1.5,0,0,0-.62,1.25v0a1.52,1.52,0,0,0,.61,1.28,2.51,2.51,0,0,0,1.61.47,3.33,3.33,0,0,0,1.59-.37,2.88,2.88,0,0,0,1.12-1,2.67,2.67,0,0,0,.41-1.45v-3.3a2,2,0,0,0-.64-1.6,2.59,2.59,0,0,0-1.81-.59,3,3,0,0,0-1.74.47,2,2,0,0,0-.82,1.22l0,.09h-1.8v-.12a3.2,3.2,0,0,1,.63-1.67,3.81,3.81,0,0,1,1.49-1.2,6,6,0,0,1,4.55,0,3.45,3.45,0,0,1,1.49,1.27,3.52,3.52,0,0,1,.53,1.94v7.72h-1.87v-1.81h0a3.83,3.83,0,0,1-.86,1.07,4,4,0,0,1-2.63,1A4.31,4.31,0,0,1,551.45,208.09Z"/><path class="cls-10" d="M561.17,197.12H563V199h0a4,4,0,0,1,2.08-1.85,4.13,4.13,0,0,1,1.47-.25,4.39,4.39,0,0,1,2.5.71,4.77,4.77,0,0,1,1.66,2,7.44,7.44,0,0,1,.59,3.07h0a7.26,7.26,0,0,1-.6,3.06,4.79,4.79,0,0,1-1.65,2,4.3,4.3,0,0,1-2.47.72,4.45,4.45,0,0,1-1.47-.25,3.67,3.67,0,0,1-1.22-.73,4.22,4.22,0,0,1-.89-1.11h0v5.63h-1.87Zm6.8,9.23a3.25,3.25,0,0,0,1.11-1.44,5.64,5.64,0,0,0,.39-2.19h0a5.72,5.72,0,0,0-.39-2.22,3.17,3.17,0,0,0-1.11-1.43,3,3,0,0,0-1.71-.5,2.76,2.76,0,0,0-1.67.52,3.4,3.4,0,0,0-1.15,1.44,5.45,5.45,0,0,0-.41,2.19h0a5.22,5.22,0,0,0,.42,2.17,3.56,3.56,0,0,0,1.14,1.45,2.84,2.84,0,0,0,1.67.51A3,3,0,0,0,568,206.35Z"/><path class="cls-10" d="M573.35,192.79h1.87v15.5h-1.87Z"/><path class="cls-10" d="M579.07,208.09a3.13,3.13,0,0,1-1.31-1.18,3.35,3.35,0,0,1-.46-1.78v0a2.77,2.77,0,0,1,1.06-2.28,5.11,5.11,0,0,1,3-1l4.13-.24v1.45l-3.92.24a3,3,0,0,0-1.73.54,1.47,1.47,0,0,0-.62,1.25v0a1.53,1.53,0,0,0,.6,1.28,2.56,2.56,0,0,0,1.62.47,3.33,3.33,0,0,0,1.59-.37,2.85,2.85,0,0,0,1.11-1,2.59,2.59,0,0,0,.42-1.45v-3.3a2.08,2.08,0,0,0-.64-1.6,2.59,2.59,0,0,0-1.81-.59,3,3,0,0,0-1.74.47,2,2,0,0,0-.82,1.22l0,.09h-1.8v-.12a3.28,3.28,0,0,1,.62-1.67,3.92,3.92,0,0,1,1.5-1.2,6,6,0,0,1,4.55,0,3.45,3.45,0,0,1,1.49,1.27,3.52,3.52,0,0,1,.53,1.94v7.72h-1.87v-1.81h0a3.79,3.79,0,0,1-.85,1.07,4.33,4.33,0,0,1-1.21.71,4.48,4.48,0,0,1-3.37-.17Z"/><path class="cls-10" d="M590.12,207.78a3.11,3.11,0,0,1-.76-2.33v-6.78h-1.63v-1.55h1.63v-3h1.93v3h2.13v1.55h-2.13v6.76a1.5,1.5,0,0,0,.39,1.21,1.78,1.78,0,0,0,1.14.32l.33,0,.27,0v1.51l-.44,0a5.25,5.25,0,0,1-.56,0A3.25,3.25,0,0,1,590.12,207.78Z"/><path class="cls-10" d="M595.64,194.89a1.13,1.13,0,0,1-.34-.83,1.1,1.1,0,0,1,.34-.83,1.13,1.13,0,0,1,.83-.34,1.16,1.16,0,0,1,1.17,1.17,1.13,1.13,0,0,1-.34.83,1.1,1.1,0,0,1-.83.34A1.13,1.13,0,0,1,595.64,194.89Zm-.1,2.23h1.87v11.17h-1.87Z"/><path class="cls-10" d="M601.28,207.78a3.11,3.11,0,0,1-.76-2.33v-6.78h-1.63v-1.55h1.63v-3h1.93v3h2.13v1.55h-2.13v6.76a1.5,1.5,0,0,0,.39,1.21A1.78,1.78,0,0,0,604,207l.33,0,.27,0v1.51l-.44,0a5.25,5.25,0,0,1-.56,0A3.25,3.25,0,0,1,601.28,207.78Z"/></g></g></g></g><g id="Group_104" data-name="Group 104"><path id="Path_22" data-name="Path 22" class="cls-3" d="M205.69,338.36l-.21,0,.8-5.79a3.39,3.39,0,0,0-2.89-3.81h0l-12.27-1.68a3.38,3.38,0,0,0-3.81,2.89h0L183,361.69a3.38,3.38,0,0,0,2.89,3.81h0l12.26,1.69a3.38,3.38,0,0,0,3.81-2.89h0l3-21.85.21,0Z"/><path id="Path_23" data-name="Path 23" class="cls-13" d="M203,330.43l-1.53-.21a1.15,1.15,0,0,1-1.27,1.42l-6.7-.92a1.15,1.15,0,0,1-1-1.29,1,1,0,0,1,.14-.42l-1.43-.2a2.41,2.41,0,0,0-2.71,2.06l-4.16,30.24a2.41,2.41,0,0,0,2.06,2.72l11.75,1.61a2.41,2.41,0,0,0,2.72-2.05h0l4.15-30.25a2.4,2.4,0,0,0-2.05-2.71Z"/></g></svg>