<svg id="Layer_1" data-name="Layer 1" xmlns="http://www.w3.org/2000/svg" viewBox="0 0 118 118.05"><path d="M30.74,45.75h14a.87.87,0,0,0,.86-.86h0v-14a.86.86,0,0,0-.86-.86H37.06a7.05,7.05,0,0,0-7,7v8.29A.87.87,0,0,0,30.74,45.75Zm3.61-11.29h6.81v6.82H34.35Z"/><path d="M44.77,67.74h-14a.87.87,0,0,0-.73.41v8.42a7.06,7.06,0,0,0,5.7,6.92h9.06a.88.88,0,0,0,.87-.86v-14A.88.88,0,0,0,44.77,67.74ZM41.17,79H34.35V72.21h6.82Z"/><path d="M68.75,45.75h14a.86.86,0,0,0,.85-.86V37a7,7,0,0,0-7-7H68.75a.87.87,0,0,0-.87.86v14A.87.87,0,0,0,68.75,45.75Zm3.6-11.29h6.81v6.82H72.35Z"/><path d="M50.81,34.49h7.33a.86.86,0,0,1,.86.86h0v9.54a.86.86,0,0,0,.86.86h2.75a.85.85,0,0,0,.86-.86v-14a.86.86,0,0,0-.86-.86H50.8a.86.86,0,0,0-.86.86v2.74A.86.86,0,0,0,50.81,34.49Z"/><path d="M30,51.05h0v11.8a.85.85,0,0,0,.86.86h2.75a.86.86,0,0,0,.86-.86V55.51a.86.86,0,0,1,.86-.86H53.69a.85.85,0,0,0,.86-.86V39.84a.86.86,0,0,0-.86-.86H50.94a.87.87,0,0,0-.86.86h0v9.49a.87.87,0,0,1-.86.86H30.9A.85.85,0,0,0,30,51.05Z"/><path d="M39.73,59.25a.85.85,0,0,0-.86.86h0v2.74a.85.85,0,0,0,.86.86h5a.86.86,0,0,0,.86-.86V60.11a.86.86,0,0,0-.86-.86Z"/><path d="M68.75,59.18H71.5a.86.86,0,0,0,.86-.86V54.65h0v-3.6a.87.87,0,0,0-.86-.86H59.91a.87.87,0,0,0-.86.86v7.34a.87.87,0,0,1-.86.86H50.86a.86.86,0,0,0-.86.86V71.35a.86.86,0,0,0,.86.87h7.35a.86.86,0,0,1,.87.86h0v9.56a.85.85,0,0,0,.86.86h2.74a.85.85,0,0,0,.86-.86v-14a.86.86,0,0,0-.86-.87H55.32a.86.86,0,0,1-.86-.86V64.57a.87.87,0,0,1,.86-.87h7.34a.85.85,0,0,0,.86-.86h0V55.51a.86.86,0,0,1,.86-.85H67a.85.85,0,0,1,.86.85v2.81A.86.86,0,0,0,68.75,59.18Z"/><path d="M82.78,50.19H80a.86.86,0,0,0-.86.86V62.74a.86.86,0,0,1-.86.86H68.85a.86.86,0,0,0-.86.86h0v2.74a.85.85,0,0,0,.86.86H82.78a.86.86,0,0,0,.86-.86V51.05A.87.87,0,0,0,82.78,50.19Z"/><path d="M82.78,72.46H68.85a.86.86,0,0,0-.86.86v9.31a.85.85,0,0,0,.86.86h2.74a.85.85,0,0,0,.86-.86V77.78a.87.87,0,0,1,.86-.86h5a.87.87,0,0,1,.86.86v4.85a.79.79,0,0,0,.13.45,7,7,0,0,0,4.33-6.51V73.32A.86.86,0,0,0,82.78,72.46Z"/><path d="M53.6,76.87H50.86a.86.86,0,0,0-.86.86v4.81a.85.85,0,0,0,.86.86H53.6a.87.87,0,0,0,.87-.86V77.73A.87.87,0,0,0,53.6,76.87Z"/><path d="M97.16,108.92l0,0,11.69-11.68,0,0h0l0,0,0,0a33.09,33.09,0,0,0,4.59-16.82V33.12A33.11,33.11,0,0,0,80.39,0H33.12A33.11,33.11,0,0,0,0,33.1V80.36a33.11,33.11,0,0,0,33.1,33.13H80.36a32.83,32.83,0,0,0,12.9-2.61,32.31,32.31,0,0,0,3.9-2Zm-.23-28.55A16.57,16.57,0,0,1,80.38,96.93H33.12A16.57,16.57,0,0,1,16.56,80.37V33.12A16.57,16.57,0,0,1,33.12,16.56H80.36A16.57,16.57,0,0,1,96.93,33.12Z"/><path d="M116.79,105.12h0l-7.91-7.9L97.19,108.91h0l7.92,7.92a4.15,4.15,0,0,0,5.85,0l5.86-5.86A4.16,4.16,0,0,0,116.79,105.12Z"/></svg>