<svg id="Layer_1" data-name="Layer 1" xmlns="http://www.w3.org/2000/svg" xmlns:xlink="http://www.w3.org/1999/xlink" viewBox="0 0 648 369.47"><defs><style>.cls-1{fill:none;}.cls-2{clip-path:url(#clip-path);}.cls-3{fill:url(#linear-gradient);}.cls-4{clip-path:url(#clip-path-2);}.cls-5{clip-path:url(#clip-path-3);}.cls-6{clip-path:url(#clip-path-4);}.cls-7{clip-path:url(#clip-path-5);}</style><clipPath id="clip-path"><path class="cls-1" d="M602.79,0H380.43l-8.28,26.28H602.79a19,19,0,0,1,18.93,18.94v279a19,19,0,0,1-18.93,18.93H272.38l-8.28,26.29H602.79A45.26,45.26,0,0,0,648,324.25v-279A45.26,45.26,0,0,0,602.79,0Z"/></clipPath><linearGradient id="linear-gradient" x1="-145.49" y1="-84.87" x2="788.46" y2="454.34" gradientUnits="userSpaceOnUse"><stop offset="0" stop-color="#7f3ff8"/><stop offset="0.55" stop-color="#a276c5"/><stop offset="1" stop-color="#ee4e96"/></linearGradient><clipPath id="clip-path-2"><rect class="cls-1" x="86.93" y="43.36" width="203" height="41.84" rx="15.63"/></clipPath><clipPath id="clip-path-3"><path class="cls-1" d="M589.23,107.31V262.16a43,43,0,0,0-43,43H284.35l12.81-40.68h57.59a16.66,16.66,0,0,0,16.62-16.62v-8.6a16.67,16.67,0,0,0-16.62-16.62H310.32l23-73h98A16.67,16.67,0,0,0,448,133v-8.59a16.67,16.67,0,0,0-16.63-16.62H346.49l13.69-43.51h186A43,43,0,0,0,589.23,107.31Z"/></clipPath><clipPath id="clip-path-4"><rect class="cls-1" x="47.86" y="284.27" width="186.97" height="41.84" rx="15.63"/></clipPath><clipPath id="clip-path-5"><rect class="cls-1" y="163.82" width="246.94" height="41.84" rx="15.63"/></clipPath></defs><g class="cls-2"><rect class="cls-3" x="-65.35" y="-223.67" width="773.68" height="816.81"/></g><g class="cls-4"><rect class="cls-3" x="-65.35" y="-223.67" width="773.68" height="816.81"/></g><g class="cls-5"><rect class="cls-3" x="-65.35" y="-223.67" width="773.68" height="816.81"/></g><g class="cls-6"><rect class="cls-3" x="-65.35" y="-223.67" width="773.68" height="816.81"/></g><g class="cls-7"><rect class="cls-3" x="-65.35" y="-223.67" width="773.68" height="816.81"/></g></svg>