<svg id="Layer_1" data-name="Layer 1" xmlns="http://www.w3.org/2000/svg" viewBox="0 0 1401.63 491.94"><defs><style>.cls-1{fill:#efefef;}.cls-2,.cls-3{fill:#eaeaea;}.cls-3{isolation:isolate;opacity:0.1;}</style></defs><path id="Path_1230" data-name="Path 1230" class="cls-1" d="M0,422.4v69.54l1399.91-1.54,1.72-93.77c-130.82-46.4-274.35-70.74-389.17-82.65a2272.69,2272.69,0,0,0-276.83-11.62h0a2271.72,2271.72,0,0,0-277.21,7.16c-115,10.06-223,20.17-354.52,64.46-50.84,20-60.06,23.36-90.67,39.23Z"/><path id="Path_1231" data-name="Path 1231" class="cls-2" d="M920.57,310.31l-10.81-4.77v-4.1l3.85,0a2.85,2.85,0,0,0,2.7-2l2.71-8.11a2.86,2.86,0,0,0-1.81-3.62,2.8,2.8,0,0,0-.91-.15h-6.54v-3.82H918a2.86,2.86,0,0,0,2.79-2.22l1.87-8.1a2.86,2.86,0,0,0-2.15-3.43,2.79,2.79,0,0,0-.64-.07H909.76v-1a1.91,1.91,0,0,0-3.82,0v1H838.38v-1a1.91,1.91,0,0,0-3.82,0v1h-8a2.86,2.86,0,0,0-2.86,2.86,3.48,3.48,0,0,0,.07.64l1.87,8.1a2.86,2.86,0,0,0,2.79,2.22h6.14v3.82h-4.47a2.86,2.86,0,0,0-2.86,2.86,2.93,2.93,0,0,0,.13.88l2.77,8.57a2.87,2.87,0,0,0,2.74,2h1.7v3.67l-8.75,4.77a2.86,2.86,0,0,0-2.86,2.86h0a2.87,2.87,0,0,0,2.86,2.87h8.74v21a1.91,1.91,0,0,0,3.82,0V316h67.56v21a1.91,1.91,0,0,0,3.82,0V316h10.81a2.87,2.87,0,0,0,2.86-2.87h0a2.86,2.86,0,0,0-2.86-2.86Zm-82.19-26.55h67.56v3.82H838.38Zm0,21.78v-3.7l67.56-.38v4.08Z"/><g id="Group_2118" data-name="Group 2118"><path id="Path_1232" data-name="Path 1232" class="cls-2" d="M1086.22,487.16c2.15,1.18,4.36,2.27,6.62,3.24,14.05-3.77,27.24-6.92,39.43-9.58,3.53-.77,7-1.49,10.32-2.17l-.17-.19a48.4,48.4,0,0,0-13.83-21.6c-.4-.35-.8-.71-1.21-1.05a47.45,47.45,0,0,0-13.77-8.19,88,88,0,0,0-24.32-4.54c-15.66-1.24-31.48-1.42-43.19-11.22A81.56,81.56,0,0,0,1086.22,487.16Z"/><path id="Path_1233" data-name="Path 1233" class="cls-2" d="M1138.63,422.77a94.41,94.41,0,0,1-23.84-13.11,96.3,96.3,0,0,1-19.12-19.19,92.57,92.57,0,0,1-13-24.2,96,96,0,0,1-2.86-55c.28-1.11.57-2.22.88-3.31s2.2-.52,1.85.7a92.72,92.72,0,0,0,56.8,112.27,1,1,0,0,1,.52,1.3,1,1,0,0,1-1.22.55Z"/><path id="Path_1234" data-name="Path 1234" class="cls-2" d="M1079.76,313.12a22.28,22.28,0,0,0,1.73-1.9l.18.12Z"/><path id="Path_1235" data-name="Path 1235" class="cls-2" d="M1068.56,290.23a8.88,8.88,0,0,1,16.75-2.44,16.2,16.2,0,0,1,1.82,8.62,24.93,24.93,0,0,1-5.64,14.81,37,37,0,0,1-9.89-8.48A15.14,15.14,0,0,1,1068.56,290.23Z"/><path id="Path_1236" data-name="Path 1236" class="cls-2" d="M1047.49,326.79a40.54,40.54,0,0,1-7.89-33c5.39,10.31,19.51,12.09,28,20.07a24.2,24.2,0,0,1,7.35,19.64l3,8.31A40.47,40.47,0,0,1,1047.49,326.79Z"/><path id="Path_1237" data-name="Path 1237" class="cls-2" d="M1041.28,365.67c9.61,6.57,22.91,1.48,34.13,4.55a24.17,24.17,0,0,1,15.73,13.86l6.55,5.92A39.92,39.92,0,0,1,1044,372.51,39.15,39.15,0,0,1,1041.28,365.67Z"/><path id="Path_1238" data-name="Path 1238" class="cls-2" d="M1101.3,362.56a40,40,0,0,1,26.1,55.62l-6.14-6.37a24.2,24.2,0,0,1-14.35-15.28C1103.5,385.41,1108.16,372,1101.3,362.56Z"/><path id="Path_1239" data-name="Path 1239" class="cls-2" d="M1147.56,465.2a30.79,30.79,0,0,0,20.27,8.74l1.19.08c.32,0,.65,0,1,0,2.39-.5,4.77-1.09,7.16-1.62h0q5.49-.85,10.41-1.53,2.75-.39,5.33-.72l.66-.09.87-.11v0h0c0-3.11-.1-6.21-.23-9.34a212,212,0,0,0-4.28-35.87,131.35,131.35,0,0,0-15.65-40.82,96.52,96.52,0,0,0-19.51-23q-1.65-1.41-3.37-2.74c-.35-.28-.7-.56-1.07-.83h0l-.12-.09-.16-.12h0c-1-.74-2-1.45-3-2.14a82.52,82.52,0,0,0-16-8.71,68.22,68.22,0,0,0-30.43-5.14h0c-.5,0-1,.08-1.5.12l1.12,1.16a135.87,135.87,0,0,1,13.7,16.85c.32.46.63.93.94,1.39a141,141,0,0,1,20.52,47.7l0,.14q1.26,5.65,2,11.41c0,.11,0,.21,0,.32.09.74.19,1.49.27,2.24q.39,3.24.6,6.51C1139.22,441.67,1138.84,455.9,1147.56,465.2Z"/><path id="Path_1240" data-name="Path 1240" class="cls-2" d="M1099.07,341.86l1.14.53A119.73,119.73,0,0,1,1122.85,356l1.06.83A118.81,118.81,0,0,1,1149,383.56h0l.19.29h0c1.62,2.37,3.14,4.82,4.56,7.31a51.63,51.63,0,0,1,6,15,28.73,28.73,0,0,1-.42,13.2c-.1.43-.23.86-.36,1.29s-.2.69-.32,1c-1.06,3.21-2.39,6.4-3.24,9.7a26.9,26.9,0,0,0-.79,4.55,18.11,18.11,0,0,0,5.24,13.84,47,47,0,0,0,15.86,9.93c6.15,2.7,12.57,5.43,17.16,10.51q.33-.06.66-.09l.87-.12c0,.18,0,.36,0,.54a.57.57,0,0,0,0-.54l0,0h0a.36.36,0,0,0-.08-.12,26.74,26.74,0,0,0-4.08-3.88v0c-8-6.15-18.69-8.17-26.62-14.53a18.28,18.28,0,0,1-7.7-14.17,21.7,21.7,0,0,1,.65-5c.77-3.25,2.1-6.4,3.16-9.54.26-.78.5-1.56.71-2.34a30.22,30.22,0,0,0,.93-12.79A47.54,47.54,0,0,0,1156,392.4q-2.45-4.56-5.35-8.87c-.25-.38-.5-.74-.76-1.11h0a122.22,122.22,0,0,0-49.23-41.3h0l-1.14-.53C1098.68,340.24,1098.28,341.52,1099.07,341.86Z"/><path id="Path_1241" data-name="Path 1241" class="cls-2" d="M1150.09,383.93a18,18,0,0,0,4.79-22.75.67.67,0,0,0-.9-.28.67.67,0,0,0-.29.89,16.62,16.62,0,0,1-4.5,21.15C1148.51,383.46,1149.41,384.45,1150.09,383.93Z"/><path id="Path_1242" data-name="Path 1242" class="cls-2" d="M1159.78,419.39a34.6,34.6,0,0,1-22.25-11.88c-.56-.65-1.55.25-1,.9a36,36,0,0,0,23.18,12.31c.86.1.91-1.24.06-1.34Z"/><path id="Path_1243" data-name="Path 1243" class="cls-2" d="M1123.13,355.74a10.17,10.17,0,0,1-9,3.49c-.85-.11-.91,1.23-.06,1.34a11.38,11.38,0,0,0,10-3.84.69.69,0,0,0,0-1,.68.68,0,0,0-.95,0Z"/><path id="Path_1244" data-name="Path 1244" class="cls-2" d="M1041.1,426.21l1.6.25h0a133.84,133.84,0,0,1,21.06,5.2h0l1.61.53a141.5,141.5,0,0,1,45,25.68l.1.08a138.23,138.23,0,0,1,14.78,14.66c2.31,2.66,4.61,5.48,7,8.21q5.3-1.15,10.32-2.18,6.38-1.31,12.34-2.41c1.72-.32,3.41-.64,5.07-.93a48.78,48.78,0,0,0,10-1.25c2.4-.51,4.77-1.1,7.16-1.63h0q5.5-.85,10.41-1.53,2.76-.39,5.33-.71c.22,0,.44-.06.67-.09-1.09-1.39-2.18-2.79-3.3-4.16v0a201.36,201.36,0,0,0-33.67-33.69c-.38-.3-.76-.6-1.16-.87A129.83,129.83,0,0,0,1139.53,421c-.68-.39-1.37-.76-2.07-1.12h0q-4.4-2.29-9-4.22l-1.64-.67-.8-.32c-1-.4-2-.78-3.09-1.13q-2.45-.85-4.94-1.58a96.28,96.28,0,0,0-20.48-3.58h-.14c-20-1.27-40.19,3.86-55.14,16.82C1041.85,425.54,1041.48,425.86,1041.1,426.21Z"/><path id="Path_1245" data-name="Path 1245" class="cls-2" d="M1187.59,470.9a53.82,53.82,0,0,0-10.41,1.53Q1182.67,471.56,1187.59,470.9Z"/><path id="Path_1246" data-name="Path 1246" class="cls-2" d="M1041.46,426.73q.61-.15,1.23-.27a120.47,120.47,0,0,1,26.3-2.73l1.34,0a118.85,118.85,0,0,1,36.09,6.23h0l.32.11h0q4.07,1.38,8,3.09a51.71,51.71,0,0,1,13.85,8.3,28.86,28.86,0,0,1,7.6,10.79c.17.41.33.83.49,1.25s.25.67.36,1c1.59,4.65,2.68,9.61,5.37,13.8a18.12,18.12,0,0,0,12.45,7.9c1.72-.33,3.42-.64,5.08-.94-.34,0-.68,0-1,0a18.32,18.32,0,0,1-14.68-6.67c-3-4.08-4.15-9.18-5.72-13.91-.25-.76-.52-1.5-.81-2.23a.3.3,0,0,0,0-.1,30.05,30.05,0,0,0-7-10.74,47.59,47.59,0,0,0-13.47-8.81q-4.71-2.18-9.62-3.86c-.42-.16-.85-.3-1.27-.43a122.09,122.09,0,0,0-64.17-3.35l-1.23.28C1040.17,425.67,1040.62,426.93,1041.46,426.73Z"/><path id="Path_1247" data-name="Path 1247" class="cls-2" d="M1107.53,429.59a18,18,0,0,0-9.88-21c-.78-.36-1.37.84-.59,1.2a16.61,16.61,0,0,1,9.15,19.6c-.23.83,1.09,1.07,1.32.24Z"/><path id="Path_1248" data-name="Path 1248" class="cls-2" d="M1136.61,452.07A34.59,34.59,0,0,1,1111.7,456c-.85-.19-1.09,1.13-.25,1.31a36,36,0,0,0,25.92-4.12C1138.11,452.74,1137.35,451.64,1136.61,452.07Z"/><path id="Path_1249" data-name="Path 1249" class="cls-2" d="M1069,423.32a10.18,10.18,0,0,1-5.08,8.2c-.75.43,0,1.53.76,1.11a11.39,11.39,0,0,0,5.63-9.06.68.68,0,0,0-.53-.78A.67.67,0,0,0,1069,423.32Z"/></g><g id="Group_2119" data-name="Group 2119"><path id="Path_1250" data-name="Path 1250" class="cls-2" d="M1112.05,213.91l-.43,0a32.6,32.6,0,0,1-16-62.1,4.83,4.83,0,0,0,2.83-4.87v-.12a32.6,32.6,0,0,1,.27-7.77,4.76,4.76,0,0,0-1.69-4.48,53.92,53.92,0,0,1,28.86-96l.26,0A53.46,53.46,0,0,1,1166.35,52a27,27,0,0,0,20.12,6.74l.13.3,0-.31.22,0a54.2,54.2,0,0,1,51.2,26.6,3,3,0,0,0,2.8,1.49l.37,0A53.93,53.93,0,1,1,1197.39,167a1.48,1.48,0,0,0-1.44-.75,54.81,54.81,0,0,1-11.09-.19,66.86,66.86,0,0,0-38.92,7c-.4.21-.81.41-1.22.6a5,5,0,0,0-2.92,5v.07a32.59,32.59,0,0,1-29.7,35.23h-.06Z"/><path id="Path_1251" data-name="Path 1251" class="cls-2" d="M1215,465.25a11.47,11.47,0,0,1-9.91-4.18,11.64,11.64,0,0,1-2-11.46c5.28-14.62.24-124.93-3-141.61-8.05-41-54.86-102-55.33-102.65l-21-22.52c-4.79-5.13-3.17-11.21.36-14.69s9.48-4.92,14.47-.13a14.06,14.06,0,0,1,3.39,4.58c.56-8.54,2.32-47-9.18-77.62-3.6-9.57,2-16.88,8.66-19.61S1157,74,1161,83.17a43,43,0,0,1,3.36,18.3c-.32,17.51-.3,33.8.06,48.42a7.87,7.87,0,0,0,14.41,4.18l13.26-19.8c8-11.91,21.37-13.49,31.1-9.77,8.82,3.37,18.38,12.56,16.3,27.39a16.45,16.45,0,0,1-3.55,8.61l-1.19,1.36a66.31,66.31,0,0,0-8.27,76.1c15.75,28.15,32.72,147,38.49,166.87,7.93,27.34,5.77,45.41-6.41,53.7l-.11,0L1216.68,465l-.82.12-.37.1C1215.21,465.29,1215.31,465.23,1215,465.25Z"/><path id="Path_1252" data-name="Path 1252" class="cls-2" d="M1104.48,175.56l-.43,0a32.59,32.59,0,0,1-16-62.09,4.87,4.87,0,0,0,2.83-4.88v-.11a32.15,32.15,0,0,1,.26-7.78,4.76,4.76,0,0,0-1.68-4.48,53.92,53.92,0,0,1,28.85-96l.26,0a53.42,53.42,0,0,1,40.18,13.49,27,27,0,0,0,20.12,6.73l.13.3,0-.31.21,0a54.23,54.23,0,0,1,51.2,26.6,3,3,0,0,0,2.8,1.49l.37,0a53.93,53.93,0,1,1-43.77,80.14,1.5,1.5,0,0,0-1.44-.75,54,54,0,0,1-11.08-.18,66.72,66.72,0,0,0-38.93,7c-.4.21-.8.41-1.22.6a5,5,0,0,0-2.92,5v.06a32.59,32.59,0,0,1-29.7,35.24h-.06Z"/><path id="Path_1253" data-name="Path 1253" class="cls-2" d="M1233.33,75.39l.3-.07a22.85,22.85,0,0,1,17.7,41.33,3.41,3.41,0,0,0-1.44,3.68l0,.08a23.09,23.09,0,0,1,.65,5.42,3.31,3.31,0,0,0,1.65,2.92,37.82,37.82,0,0,1-9.73,69.66l-.18,0a37.47,37.47,0,0,1-29.3-5,18.89,18.89,0,0,0-14.66-2.52l-.12-.19,0,.21-.15,0a38,38,0,0,1-38.33-13,2.1,2.1,0,0,0-2.1-.73l-.25.06a37.82,37.82,0,1,1,21.76-60.23,1.06,1.06,0,0,0,1.08.36,38.56,38.56,0,0,1,7.71-1.05,46.87,46.87,0,0,0,26.22-9l.79-.55a3.56,3.56,0,0,0,1.49-3.76v0a22.85,22.85,0,0,1,16.82-27.6h0Z"/><path id="Path_1254" data-name="Path 1254" class="cls-2" d="M1114.42,41.27a109.27,109.27,0,0,0,15.15,27.28q2.7,3.54,5.7,6.85c.78.87,2.31-.18,1.51-1.06A107.45,107.45,0,0,1,1119.6,48.7q-1.89-4-3.45-8.07a.92.92,0,0,0-1.73.64Z"/><path id="Path_1255" data-name="Path 1255" class="cls-2" d="M1172.38,76.54l12.85,18.52a.93.93,0,0,0,1.51-1.07l-12.85-18.51a.92.92,0,0,0-1.51,1.06Z"/><path id="Path_1256" data-name="Path 1256" class="cls-2" d="M1195,46.59l10.77,18.69c.6,1,2.1,0,1.51-1.06l-10.77-18.7C1195.9,44.49,1194.39,45.56,1195,46.59Z"/><path id="Path_1257" data-name="Path 1257" class="cls-2" d="M1159.75,116a109.27,109.27,0,0,0,15.15,27.28q2.7,3.54,5.7,6.85c.78.88,2.31-.18,1.51-1.06a107.45,107.45,0,0,1-17.18-25.64c-1.26-2.64-2.4-5.33-3.44-8.07a.93.93,0,0,0-1.2-.52.92.92,0,0,0-.54,1.16Z"/><path id="Path_1258" data-name="Path 1258" class="cls-2" d="M1217.71,151.24l12.85,18.52a.93.93,0,0,0,1.51-1.07l-12.85-18.51a.92.92,0,0,0-1.51,1.06Z"/><path id="Path_1259" data-name="Path 1259" class="cls-2" d="M1240.31,121.29,1251.08,140c.6,1,2.1,0,1.51-1.06l-10.77-18.7C1241.23,119.2,1239.72,120.26,1240.31,121.29Z"/></g><g id="Group_175" data-name="Group 175"><path id="Path_29" data-name="Path 29" class="cls-2" d="M585.35,391.17h-4.62l-2.2-17.82h6.81Z"/><path id="Path_30" data-name="Path 30" class="cls-2" d="M586.53,395.65h-14.9v-.19a5.8,5.8,0,0,1,5.8-5.8h9.1Z"/><path id="Path_31" data-name="Path 31" class="cls-2" d="M550.25,391l-4.47-1.2L548.27,372l6.59,1.76Z"/><path id="Path_32" data-name="Path 32" class="cls-2" d="M550.23,395.65l-14.39-3.85,0-.18a5.81,5.81,0,0,1,7.1-4.11h0l8.79,2.35Z"/><path id="Path_33" data-name="Path 33" class="cls-2" d="M588,291.3l3.87,4.49-5,91.37h-10.7l-5.39-70.31L554.07,389,543,386.31l10.11-91.7Z"/><path id="Path_34" data-name="Path 34" class="cls-2" d="M555.65,232.31,566.29,227l16.37.29,14.09,7.21-8,40,3.46,20.87h0a85.44,85.44,0,0,1-40.83.34l-.11,0s8-28.23,4.57-36.85Z"/><path id="Path_35" data-name="Path 35" class="cls-2" d="M586.45,211a12.06,12.06,0,1,0,0,.09Z"/><path id="Path_36" data-name="Path 36" class="cls-2" d="M569,204.08a3.41,3.41,0,0,1,2.31-.93,5.4,5.4,0,0,1,4,1.46,4.81,4.81,0,0,1,.7,3.07v3a5.75,5.75,0,0,0,.41,2.56,1.93,1.93,0,0,0,2.14,1.1c1-.31,1.42-1.63,2.43-1.86a1.77,1.77,0,0,1,1.87,1.08,4.74,4.74,0,0,1,.27,2.3c-.1,1.54-2.31,2.16-2.63,3.67-.18.88-.82,2.63,0,2.26,3.77-.37,5.42-2.57,7.15-4.65l3.89-4.67a4.48,4.48,0,0,0,1-1.62,4.66,4.66,0,0,0,.1-1.29c0-1.16,0-2.32-.09-3.49,0-1-.3-2.3-1.29-2.5-.52-.11-1.2.08-1.47-.37a1.06,1.06,0,0,1-.05-.72A6.9,6.9,0,0,0,590,199c-.57-1.68-2.55-2.38-4.3-2.7s-3.72-.59-4.82-2a15.48,15.48,0,0,0-1-1.34,3.67,3.67,0,0,0-1.79-.9,9.92,9.92,0,0,0-6.51.57,5.57,5.57,0,0,1-2.63.85c-1-.06-1.78-.74-2.74-.9a3.89,3.89,0,0,0-3.77,2.25,4.71,4.71,0,0,0,.3,5.41c.66.7,1.65,1.19,1.93,2.12.11.37.08.78.18,1.16a2.11,2.11,0,0,0,1.69,1.46A3,3,0,0,0,569,204.08Z"/><path id="Path_37" data-name="Path 37" class="cls-2" d="M554.18,261.49a4.33,4.33,0,0,0,5.59,2.47h0a4.47,4.47,0,0,0,.69-.35L582.07,275l.7-5.26-21-12.39a4.34,4.34,0,0,0-7.59,4.1Z"/><path id="Path_38" data-name="Path 38" class="cls-2" d="M583,262.4a4.3,4.3,0,0,1-6,1.18h0a3.51,3.51,0,0,1-.6-.48l-23.59,6.42.21-6.69,23.46-6.09a4.35,4.35,0,0,1,6.5,5.67Z"/><path id="Path_39" data-name="Path 39" class="cls-2" d="M592.15,234.75l4.6-.28s5.39,7.1,2.4,14.81c0,0,.52,27.7-11.41,26.56s-15.7-1.13-15.7-1.13l3.57-10,8-2.47s-2.46-10.89,2.21-15.42Z"/><path id="Path_40" data-name="Path 40" class="cls-2" d="M558.94,234.51l-.65-3.33s-9.59-.23-11.49,14.3c0,0-8.62,21.74-.17,24.54s17.75,0,17.75,0l-.7-9.59-9.3-1.9s4.8-6.21,2.19-11.6Z"/></g><g id="Group_176" data-name="Group 176"><path id="Path_357" data-name="Path 357" class="cls-2" d="M428,393.17h6.59l3.13-25.4H428Z"/><path id="Path_358" data-name="Path 358" class="cls-2" d="M426.35,391h13a8.26,8.26,0,0,1,8.26,8.27v.26H426.35Z"/><path id="Path_359" data-name="Path 359" class="cls-2" d="M393.65,393.17h6.59l3.13-25.4h-9.72Z"/><path id="Path_360" data-name="Path 360" class="cls-2" d="M392,391h13a8.27,8.27,0,0,1,8.27,8.27h0v.26H392Z"/><path id="Path_361" data-name="Path 361" class="cls-2" d="M388.42,278.06v67.06l1.7,43.29h14l4.67-81.5,9.34,33.54,5.94,47.11,17-.85L429.59,278.05Z"/><circle id="Ellipse_39" data-name="Ellipse 39" class="cls-2" cx="404.7" cy="207.6" r="10.19"/><path id="Path_362" data-name="Path 362" class="cls-2" d="M400.47,220.44l-2.72,2.86-2.54,57.3,30.14-.85-7.22-50.08-6.36-6.1-3.23-3.14Z"/><path id="Path_363" data-name="Path 363" class="cls-2" d="M395.63,226.7l2.29-3.72.68,8s5.52,17.83,5.1,33.53,2.12,52.63-1.28,53.06-17.82,1.27-17.82-1.7-.85-81.92-.85-81.92Z"/><path id="Path_364" data-name="Path 364" class="cls-2" d="M411.08,223l5.78,4.56,12.73,4.67s0,54.33,2.55,67.07,7.21,14,1.27,14.43-5.52-1.7-5.52-1.7,4.25-21.22-1.27-25.47-16.13-28.86-15.28-42.45S410.23,223,411.08,223Z"/><path id="Path_365" data-name="Path 365" class="cls-2" d="M395.06,210.78s.87-1.52.67-6.6,7.53-2.21,14-2.69,5.09,8.48,5.09,8.48.47-.54,1.46-4.86-1.26-8.63-1.26-8.63c-.67-4.55-4.27-3.09-4.27-3.09a1.87,1.87,0,0,1,1.4,2.11c-1.47-2.57-5.06-1.11-5.06-1.11-4.8-3-9.66,1-9.66,1-5.8,1.32-2.4,5.93-2.4,5.93C389.2,204.21,395.06,210.78,395.06,210.78Z"/><path id="Path_366" data-name="Path 366" class="cls-2" d="M384.61,309.69a4.29,4.29,0,0,0-.17-6.07,4.51,4.51,0,0,0-.59-.47l1.84-9.65L380.1,291l-2.4,13.65a4.32,4.32,0,0,0,6.91,5.08Z"/><path id="Path_367" data-name="Path 367" class="cls-2" d="M385.87,233.91l-1.13-.6s-6.09,2.3-5.66,4-3.4,61.12-2.12,63.25,11.46.42,11.46.42Z"/><path id="Path_368" data-name="Path 368" class="cls-2" d="M435.35,305.69a4.29,4.29,0,0,1-.67-6,3.78,3.78,0,0,1,.52-.54l-3.15-9.3,5.18-3.3,4.27,13.2a4.32,4.32,0,0,1-6.15,6Z"/><path id="Path_369" data-name="Path 369" class="cls-2" d="M429.35,297.59s10.32.27,11.29-2-11-60.61-10.85-62.34-6.16-3.18-6.16-3.18l-1,.75Z"/></g><g id="Group_178" data-name="Group 178"><path id="Path_378" data-name="Path 378" class="cls-2" d="M341.66,253V241.16l1.88-3.42h.07a5.68,5.68,0,0,1,3.89,1.76c1.88,1.92,2.73,5.1,2.53,9.49v.08Z"/><g id="Group_177" data-name="Group 177"><path id="Path_370" data-name="Path 370" class="cls-2" d="M358.42,300.21,352,268.89l-2.81-23.13-6.22,4,.86,25.49,9.92,26.42a3.46,3.46,0,1,0,6.13,3.23h0a3.45,3.45,0,0,0-1.45-4.68h0l0,0Z"/><path id="Path_371" data-name="Path 371" class="cls-2" d="M298.64,302.63l1.77-31.91-.59-23.3L308,250.5l1.37,25.34-6,27.58a3.46,3.46,0,1,1-4.84-.76h0Z"/><path id="Path_372" data-name="Path 372" class="cls-2" d="M315.86,395.42h4.2l2-16.2h-6.2Z"/><path id="Path_373" data-name="Path 373" class="cls-2" d="M314.79,394.05h8.28a5.27,5.27,0,0,1,5.27,5.27h0v.17H314.79Z"/><path id="Path_374" data-name="Path 374" class="cls-2" d="M331.77,393.56l4.16.65,4.45-15.72-6.13-.94Z"/><path id="Path_375" data-name="Path 375" class="cls-2" d="M330.93,392l8.17,1.27h0a5.28,5.28,0,0,1,4.41,6l0,.16-13.39-2.07Z"/><path id="Path_376" data-name="Path 376" class="cls-2" d="M314.62,390.58l0-.11-15.21-82.25a31.06,31.06,0,0,1,2.75-19.43l9.2-18.41,27.48,3.72,3.24,23.44,11.55,44.73v0l-14.81,47-9.7.64,8.6-42L322,312.25l1.11,77.69Z"/><path id="Path_377" data-name="Path 377" class="cls-2" d="M339.46,277.1l-.18-.28c0-.05-3.37-5.08-12.46-1.72-9.27,3.42-16.45-3.2-16.52-3.26l0,0-2.1-18.72-2.48-15.19,7.89-1.38,3.88-2.33,15.42-.27,4.06,3.19,6.67.72.61,13.85h0Z"/><path id="Path_379" data-name="Path 379" class="cls-2" d="M309,251.72l-9.55-1.15v-.1c-.33-4.76.5-8.3,2.47-10.5a6.1,6.1,0,0,1,3.91-2.13h.06l2.58,2.36Z"/><path id="Path_380" data-name="Path 380" class="cls-2" d="M336.65,229.14H311.52a2,2,0,0,1-1.95-1.95h0v-9.1a14.52,14.52,0,0,1,29,0v9.1a2,2,0,0,1-2,1.95Z"/><circle id="Ellipse_40" data-name="Ellipse 40" class="cls-2" cx="324.67" cy="218.41" r="10.64"/><path id="Path_381" data-name="Path 381" class="cls-2" d="M334.79,218.74H320.73a1.09,1.09,0,0,1-1.07-1l-.18-1.45a.66.66,0,0,0-.73-.57h0a.64.64,0,0,0-.51.36l-.92,2a1.08,1.08,0,0,1-1,.63h-2.13a1.09,1.09,0,0,1-1.09-1.09h0v-.1l.84-8.79a1.12,1.12,0,0,1,.62-.88,22,22,0,0,1,19.4,0,1.09,1.09,0,0,1,.61.83l1.26,8.78a1.07,1.07,0,0,1-.92,1.22h-.14Z"/></g></g><g id="Group_180" data-name="Group 180"><g id="Group_179" data-name="Group 179"><path id="Path_382" data-name="Path 382" class="cls-2" d="M471.84,301.2a3.89,3.89,0,0,0,2.37-5h0a3.87,3.87,0,0,0-.29-.62L483,285.24l-7.11-1-7.56,10a3.92,3.92,0,0,0-1.12,5.41h0a3.93,3.93,0,0,0,4.6,1.53Z"/><path id="Path_383" data-name="Path 383" class="cls-2" d="M482.83,393.23h-6.36l-3-24.5h9.38Z"/><path id="Path_384" data-name="Path 384" class="cls-2" d="M484.45,399.39H464v-.26a8,8,0,0,1,8-8h12.51Z"/><path id="Path_385" data-name="Path 385" class="cls-2" d="M516.08,387.92,510,389.8l-10.15-22.51,8.95-2.77Z"/><path id="Path_386" data-name="Path 386" class="cls-2" d="M519.45,393.32l-19.56,6.07-.08-.25a8,8,0,0,1,5.26-10h0L517,385.45Z"/><path id="Path_973" data-name="Path 973" class="cls-2" d="M478,280.26,468.55,291l7.37.66Z"/><path id="Path_975" data-name="Path 975" class="cls-2" d="M474.28,294.14s-3.27,1.64-3.67,9,1.22,26.56,1.22,26.56-1.63,8.58,0,16.34-1.63,36,.41,36,12.66,1.22,13.07,0,.82-19.61.82-19.61,3.27-9.4,0-15.12c0,0,11.41,19.93,18.79,35.14,1.62,3.32,13.89-.41,11.85-4.09s-6.94-20.43-6.94-20.43-3.68-12.25-10.22-17.56l3.28-26.15s6.94-17.56,2.86-20S474.28,294.14,474.28,294.14Z"/><circle id="Ellipse_182" data-name="Ellipse 182" class="cls-2" cx="486.54" cy="216.93" r="10.62"/><path id="Path_976" data-name="Path 976" class="cls-2" d="M498.39,228.37l-13.2,7.77s-5.06,2.84-6.95,7.76c-2,5.24-.84,12.61,0,14.3,1.64,3.27-.68,11.44-.68,11.44l-2.05,18.79s-7.35,6.94-1.63,7.76,15.93-.41,22.05,0,13.08,1.22,11-2.86-4.49-6.95-2-15.12c1.92-6.39,1.83-30.3,1.71-40.39a8.14,8.14,0,0,0-3.95-6.87Z"/><path id="Path_983" data-name="Path 983" class="cls-2" d="M479,207.1l-1.75-.7s3.67-4.05,8.78-3.69l-1.44-1.59s3.51-1.4,6.7,2.29a31.09,31.09,0,0,1,4.83,6.78H498l-.78,1.73,2.74,1.73-2.82-.31a9.57,9.57,0,0,1-.26,4.48l.07,1.36s-3.27-5.06-3.27-5.76v1.76s-1.75-1.58-1.75-2.63l-1,1.22-.48-1.93-5.91,1.93,1-1.58-3.68.53,1.44-1.94s-4.15,2.29-4.31,4.22-2.23,4.4-2.23,4.4l-1-1.76S474.37,209.73,479,207.1Z"/><path id="Path_387" data-name="Path 387" class="cls-2" d="M485.87,302.36a3.89,3.89,0,0,0,1.45-5.3,3.6,3.6,0,0,0-.39-.57l7.12-11.83-7.17.3-5.66,11.19a3.91,3.91,0,0,0,4.65,6.21Z"/><path id="Path_981" data-name="Path 981" class="cls-2" d="M502.06,233.68l3.07-.61s9.18,6.74,6.33,20.22-15.52,33.91-15.52,33.91-2.86,3.68-3.68,4.49-2.45,0-1.63,1.23-1.23,2-1.23,2-9,0-8.17-3.26,14.7-26.56,14.7-26.56l-2-21.65S492.26,232.87,502.06,233.68Z"/></g><path id="Path_980" data-name="Path 980" class="cls-3" d="M492.59,241.24l1.22,24.92-11.87,24.06-2-.77L492.18,267Z"/><path id="Path_982" data-name="Path 982" class="cls-3" d="M506.07,271.47v-2.86l-13.89,22.88Z"/></g></svg>