<?xml version="1.0" encoding="utf-8"?>
<!-- Generator: Adobe Illustrator 22.1.0, SVG Export Plug-In . SVG Version: 6.00 Build 0)  -->
<svg version="1.1" id="Layer_1" xmlns="http://www.w3.org/2000/svg" xmlns:xlink="http://www.w3.org/1999/xlink" x="0px" y="0px"
	 viewBox="0 0 512 512" style="enable-background:new 0 0 512 512;" xml:space="preserve">
<g>
	<path d="M432.8,31H79.2C52.6,31,31,52.6,31,79.2v353.6c0,26.6,21.6,48.2,48.2,48.2h353.6c26.6,0,48.2-21.6,48.2-48.2V79.2
		C481,52.6,459.4,31,432.8,31z M383.7,190.5c0.2,2.8,0.2,5.7,0.2,8.5c0,87.1-66.3,187.4-187.4,187.4c-37.4,0-72-10.8-101.1-29.5
		c5.3,0.6,10.4,0.8,15.9,0.8c30.8,0,59.2-10.4,81.8-28.1c-28.9-0.6-53.2-19.6-61.6-45.7c10.1,1.5,19.3,1.5,29.7-1.2
		c-30.1-6.1-52.7-32.6-52.7-64.7v-0.8c8.7,4.9,19,7.9,29.7,8.3c-18.4-12.2-29.4-32.8-29.3-54.8c0-12.3,3.2-23.5,8.9-33.2
		c32.4,40,81.2,66.1,135.8,68.9c-9.3-44.7,24.1-81,64.3-81c19,0,36.1,7.9,48.1,20.8c14.9-2.8,29.1-8.3,41.8-15.9
		c-4.9,15.3-15.3,28.1-28.9,36.3c13.3-1.4,26.1-5.1,38-10.2C407.8,169.5,396.5,181.2,383.7,190.5z"/>
</g>
</svg>
