<svg id="Layer_1" data-name="Layer 1" xmlns="http://www.w3.org/2000/svg" xmlns:xlink="http://www.w3.org/1999/xlink" viewBox="0 0 356.9 203.49"><defs><style>.cls-1{fill:#fff;}.cls-2{clip-path:url(#clip-path);}.cls-3{clip-path:url(#clip-path-2);}</style><clipPath id="clip-path"><rect class="cls-1" x="47.88" y="23.88" width="111.81" height="23.04" rx="11.52"/></clipPath><clipPath id="clip-path-2"><rect class="cls-1" x="26.36" y="156.57" width="102.98" height="23.04" rx="11.52"/></clipPath></defs><path class="cls-1" d="M332,0H209.53L205,14.48H332A10.44,10.44,0,0,1,342.43,24.9V178.59A10.44,10.44,0,0,1,332,189H150l-4.56,14.47H332a24.93,24.93,0,0,0,24.9-24.9V24.9A24.93,24.93,0,0,0,332,0Z"/><rect class="cls-1" x="47.88" y="23.88" width="111.81" height="23.04" rx="11.52"/><g class="cls-2"><rect class="cls-1" x="-35.99" y="-123.19" width="426.12" height="449.88"/></g><path class="cls-1" d="M324.53,59.1v85.29a23.7,23.7,0,0,0-23.7,23.7H156.61l7.06-22.41h31.72a9.18,9.18,0,0,0,9.15-9.16v-4.73a9.18,9.18,0,0,0-9.15-9.15H170.92l12.66-40.22h54a9.18,9.18,0,0,0,9.16-9.16V68.53a9.19,9.19,0,0,0-9.16-9.16H190.84l7.54-24H300.83A23.7,23.7,0,0,0,324.53,59.1Z"/><rect class="cls-1" x="26.36" y="156.57" width="102.98" height="23.04" rx="11.52"/><g class="cls-3"><rect class="cls-1" x="-35.99" y="-132.07" width="426.12" height="449.88"/></g><rect class="cls-1" y="90.23" width="136.01" height="23.04" rx="11.52"/></svg>